<svg width="60" height="50" viewBox="0 0 60 50" fill="none" xmlns="http://www.w3.org/2000/svg">
<path d="M28.108 31.5025C28.2943 31.3379 28.4848 31.1795 28.665 31.0028L28.8698 30.7997C26.8097 32.8776 24.0214 34.0882 21.0846 34.1797C18.1477 34.2713 15.2883 33.2367 13.1007 31.2912C11.9935 30.2705 11.1047 29.0391 10.4875 27.6706C9.8702 26.302 9.53702 24.8242 9.50778 23.3252C9.47854 21.8262 9.75384 20.3368 10.3173 18.9455C10.8807 17.5543 11.7207 16.2898 12.7873 15.2273L18.9004 9.15642C19.804 8.25979 20.3113 7.04392 20.311 5.77627C20.3106 4.50863 19.8025 3.29305 18.8984 2.39696C17.9943 1.50087 16.7684 0.997666 15.4902 0.998047C14.212 0.998428 12.9864 1.50236 12.0829 2.39899L6.24827 8.18963C2.8919 11.5262 0.752389 15.8769 0.167881 20.5543C-0.416627 25.2316 0.587199 29.9687 3.02071 34.0169C6.90851 36.3627 11.4619 37.3864 15.9896 36.9326C20.5173 36.4788 24.772 34.5723 28.108 31.5025Z" fill="white"/>
<path d="M42.933 29.0429C42.7662 28.192 42.369 27.4022 41.7841 26.758C41.1992 26.1139 40.4486 25.6397 39.6127 25.3864C38.7769 25.133 37.8872 25.11 37.0392 25.3197C36.1911 25.5295 35.4166 25.9642 34.7986 26.5772L28.8596 32.4674L28.6548 32.6705C28.4745 32.8492 28.2841 33.0076 28.0977 33.1701C24.76 36.2341 20.5058 38.1351 15.9804 38.5848C11.455 39.0346 6.90508 38.0085 3.02069 35.6623C3.1149 35.8126 3.19886 35.9689 3.29511 36.1192C3.47738 36.3914 3.66989 36.6615 3.86444 36.9317C4.08357 37.2363 4.3068 37.541 4.54641 37.8335C4.84745 38.1991 5.17103 38.5525 5.50279 38.9018C5.70759 39.1049 5.88576 39.3284 6.09465 39.5315C6.35883 39.7874 6.63531 40.021 6.91383 40.2586C7.19235 40.4962 7.41762 40.7156 7.67976 40.9228C7.94189 41.1299 8.25932 41.3493 8.55218 41.5585C8.84503 41.7677 9.08669 41.9546 9.37135 42.1313C9.65602 42.308 9.98574 42.4948 10.295 42.6736C10.6042 42.8523 10.8561 43.0067 11.1428 43.1529C11.4295 43.2991 11.7859 43.4515 12.1074 43.5957C12.4289 43.7399 12.6911 43.8719 12.9901 43.9897C13.2891 44.1075 13.6516 44.2213 13.9854 44.333C14.3192 44.4447 14.5875 44.5483 14.8947 44.6376C15.2326 44.7351 15.5746 44.8042 15.9186 44.8854C16.2279 44.9565 16.533 45.0418 16.8463 45.0885C17.1924 45.1535 17.5426 45.1901 17.8887 45.2388C18.2 45.2795 18.5031 45.3343 18.8226 45.3627C19.1748 45.3952 19.5291 45.3993 19.8834 45.4135C20.1947 45.4257 20.4978 45.4521 20.8173 45.4501C21.1736 45.4501 21.5279 45.4176 21.8843 45.3993C22.1915 45.383 22.4987 45.379 22.8079 45.3485C23.1642 45.314 23.5185 45.249 23.8728 45.1962C24.1759 45.1495 24.4872 45.119 24.7842 45.0601C25.1405 44.991 25.4907 44.8915 25.8429 44.8042C26.1378 44.729 26.4368 44.6722 26.7297 44.5848C27.086 44.4792 27.4342 44.3452 27.7844 44.2192C28.065 44.1197 28.3517 44.0344 28.6302 43.9207C28.9865 43.7764 29.3347 43.6018 29.6849 43.4373C29.947 43.3134 30.2132 43.2057 30.4713 43.0717C30.8338 42.8828 31.1819 42.6654 31.5342 42.4501C31.7676 42.308 32.0093 42.1861 32.2387 42.0439C32.6237 41.7921 32.9903 41.5057 33.3609 41.2315C33.5452 41.0934 33.7378 40.9715 33.9159 40.8253C34.4651 40.3813 34.9914 39.9102 35.4928 39.4137L41.6244 33.3326C42.3038 32.6602 42.7646 31.8014 42.9473 30.8669C43.0653 30.2631 43.0653 29.6426 42.9473 29.0389" fill="white"/>
<path d="M56.6501 16.9837C52.7623 14.6379 48.209 13.6142 43.6813 14.068C39.1536 14.5218 34.8988 16.4283 31.5629 19.4982C31.3745 19.6607 31.184 19.8211 31.0058 19.9978L30.801 20.2009C32.8611 18.123 35.6494 16.9124 38.5863 16.8209C41.5231 16.7293 44.3826 17.7639 46.5702 19.7094C47.6788 20.7294 48.5687 21.9605 49.1868 23.3293C49.8048 24.698 50.1384 26.1763 50.1674 27.6757C50.1965 29.1752 49.9205 30.6651 49.3559 32.0564C48.7913 33.4477 47.9497 34.7118 46.8815 35.7733L40.7704 41.8442C39.8669 42.7403 39.3593 43.9557 39.3593 45.2229C39.3593 46.4902 39.8669 47.7055 40.7704 48.6016C41.6739 49.4977 42.8994 50.0011 44.1772 50.0011C45.4549 50.0011 46.6804 49.4977 47.5839 48.6016L53.4246 42.811C56.7807 39.4742 58.9198 35.1233 59.5039 30.446C60.0881 25.7687 59.0839 21.0317 56.6501 16.9837Z" fill="white"/>
<path d="M56.3737 14.8641C56.1914 14.5899 55.9989 14.3218 55.8043 14.0517C55.5852 13.747 55.362 13.4424 55.1244 13.1519C54.8234 12.7863 54.4977 12.4329 54.166 12.0836C53.9612 11.8805 53.783 11.657 53.5762 11.4539C53.312 11.198 53.0355 10.9644 52.757 10.7248C52.4785 10.4851 52.2532 10.2698 51.9911 10.0606C51.7289 9.85141 51.4094 9.63205 51.1166 9.42285C50.8237 9.21365 50.5821 9.02882 50.2974 8.85008C50.0128 8.67134 49.683 8.48652 49.3738 8.30981C49.0646 8.13311 48.8127 7.97468 48.5219 7.82641C48.231 7.67814 47.8829 7.52784 47.5593 7.38567C47.2357 7.24349 46.9757 7.10944 46.6767 6.99164C46.3469 6.86165 46.009 6.75806 45.6752 6.64432C45.3742 6.54276 45.0772 6.44121 44.7741 6.34372C44.4342 6.24623 44.0881 6.17514 43.7502 6.09593C43.443 6.02484 43.1358 5.94156 42.8306 5.89282C42.4825 5.82782 42.1323 5.79126 41.7821 5.74252C41.4728 5.69986 41.1677 5.64502 40.8523 5.61862C40.498 5.58612 40.1417 5.58409 39.7874 5.56987C39.4781 5.55769 39.173 5.53128 38.8597 5.53331C38.4992 5.53331 38.1408 5.56581 37.7825 5.58409C37.4794 5.60237 37.1681 5.6044 36.8691 5.63487C36.5086 5.6694 36.1502 5.73439 35.7898 5.78923C35.4908 5.83391 35.1898 5.86438 34.8928 5.92328C34.5324 5.99234 34.1781 6.09186 33.8217 6.18123C33.5309 6.25435 33.236 6.31325 32.9473 6.39856C32.5868 6.50621 32.2346 6.64229 31.8782 6.76822C31.5997 6.86774 31.3192 6.95101 31.0447 7.06069C30.6843 7.20693 30.3341 7.38364 29.9818 7.55018C29.7238 7.67205 29.4576 7.77767 29.2016 7.91172C28.835 8.10264 28.4828 8.31794 28.1244 8.54136C27.895 8.67947 27.6574 8.80134 27.4342 8.94757C27.0431 9.20349 26.6703 9.4919 26.2956 9.77829C26.1174 9.91234 25.929 10.0322 25.7549 10.1723C25.2054 10.6196 24.6791 11.0941 24.178 11.5941L18.0608 17.6589C17.6049 18.1006 17.2419 18.6276 16.9928 19.2094C16.7437 19.7912 16.6135 20.4162 16.6098 21.0483C16.606 21.6803 16.7288 22.3068 16.9709 22.8915C17.2131 23.4762 17.5698 24.0073 18.0205 24.4543C18.4711 24.9012 19.0067 25.255 19.5962 25.4952C20.1858 25.7354 20.8175 25.8571 21.4548 25.8534C22.0921 25.8497 22.7223 25.7206 23.3089 25.4735C23.8956 25.2265 24.4269 24.8665 24.8722 24.4143L31.0038 18.3353C31.184 18.1565 31.3744 17.9981 31.5608 17.8356C34.8967 14.765 39.1517 12.8578 43.6799 12.4036C48.208 11.9494 52.7619 12.9731 56.6501 15.3191C56.5559 15.1668 56.472 15.0124 56.3757 14.8621" fill="white"/>
</svg>
