<svg width="220" height="49" viewBox="0 0 220 49" fill="none" xmlns="http://www.w3.org/2000/svg">
<g clip-path="url(#clip0_231_12409)">
<path d="M73.8733 36.2746C72.9373 35.3413 72.1912 34.2379 71.6759 33.0248C71.1341 31.7612 70.8595 30.4007 70.869 29.0276V15.2366H75.055V29.0276C75.049 29.8286 75.2137 30.6218 75.5383 31.3553C75.8539 32.0683 76.2973 32.7186 76.8469 33.2747C77.3992 33.834 78.0567 34.2805 78.7822 34.5888C79.5284 34.9103 80.3341 35.0736 81.1476 35.0681H90.6808C91.488 35.07 92.2869 34.9068 93.0277 34.5888C93.7568 34.2851 94.4201 33.8452 94.9815 33.2929C95.5339 32.7419 95.9826 32.0974 96.3065 31.3898C96.6427 30.6594 96.814 29.865 96.8082 29.0622V15.2305H101.002V29.0216C101.012 30.3946 100.737 31.7551 100.196 33.0187C99.6788 34.2326 98.9306 35.3361 97.9919 36.2685C97.0408 37.1819 95.9306 37.9168 94.7152 38.4377C93.4428 38.984 92.0693 39.2608 90.6828 39.2501H81.2193C79.8213 39.2632 78.436 38.9865 77.1521 38.4377C75.9367 37.9168 74.8266 37.1819 73.8754 36.2685" fill="white"/>
<path d="M90.6787 39.5503H81.2193C79.7802 39.5614 78.3546 39.2751 77.0333 38.7094C75.7841 38.1726 74.6434 37.4156 73.6665 36.4752C72.703 35.5154 71.9341 34.3812 71.4014 33.1341C70.8441 31.8331 70.5611 30.4327 70.57 29.0191V14.9355H75.356V29.0211C75.3512 29.7808 75.5075 30.533 75.8147 31.2289C76.1171 31.9077 76.5402 32.527 77.064 33.0569C77.5907 33.5886 78.2167 34.0135 78.9071 34.3081C79.6182 34.6129 80.3853 34.7678 81.1599 34.763H90.691C91.4586 34.7638 92.2182 34.609 92.9232 34.3081C93.6168 34.0177 94.2479 33.5985 94.7828 33.0732C95.3102 32.5466 95.7388 31.9311 96.0484 31.2553C96.366 30.5629 96.5281 29.8103 96.5235 29.0496V14.9355H101.31V29.0211C101.318 30.4345 101.036 31.8347 100.48 33.1361C99.9475 34.3837 99.1778 35.5181 98.2131 36.4773C97.2349 37.4181 96.0928 38.1751 94.8422 38.7115C93.5325 39.2751 92.1186 39.5615 90.691 39.5523L90.6787 39.5503ZM74.1027 36.0629C75.0291 36.9506 76.1092 37.6655 77.2913 38.1732C78.5379 38.7056 79.8825 38.9754 81.2397 38.9654H90.6992C92.045 38.9733 93.3778 38.7036 94.6128 38.1732C95.7959 37.6663 96.8769 36.9514 97.8035 36.0629C98.713 35.156 99.4387 34.0845 99.9415 32.9066C100.466 31.6791 100.732 30.3583 100.724 29.0252V15.5246H97.1051V29.0557C97.1104 29.9012 96.9301 30.7377 96.5768 31.5072C96.2387 32.246 95.7698 32.9188 95.1924 33.4936C94.6037 34.0724 93.9085 34.5337 93.1444 34.8524C92.3683 35.1841 91.532 35.3548 90.6869 35.3541H81.1476C80.2928 35.3594 79.4461 35.1886 78.6614 34.8524C77.9022 34.5267 77.2137 34.0584 76.6339 33.4733C76.0596 32.8917 75.5961 32.2119 75.2659 31.4666C74.9256 30.6986 74.7518 29.8682 74.756 29.0293V15.5246H71.1598V29.0211C71.1514 30.3543 71.4176 31.6751 71.9421 32.9026C72.4454 34.0813 73.1719 35.1534 74.0822 36.0609" fill="white"/>
<path d="M90.6787 39.6397H81.2172C79.7655 39.6503 78.3274 39.3612 76.9944 38.7907C75.7343 38.2542 74.5825 37.4959 73.5948 36.5524C72.6232 35.5833 71.8474 34.4389 71.3093 33.1808C70.7482 31.8686 70.4632 30.4566 70.4717 29.0313V14.8462H75.4379V29.0211C75.4326 29.7689 75.5861 30.5094 75.8885 31.1944C76.1856 31.8639 76.6018 32.4748 77.1172 32.998C77.6351 33.5225 78.2515 33.9414 78.9317 34.2309C79.6299 34.5299 80.383 34.6821 81.1435 34.6777H90.6767C91.4315 34.6787 92.1786 34.5266 92.8721 34.2309C93.556 33.9447 94.1782 33.531 94.705 33.0122C95.2249 32.4935 95.6473 31.8868 95.9522 31.2208C96.2647 30.5399 96.424 29.7997 96.4191 29.0516V14.834H101.387V29.0089C101.396 30.4342 101.111 31.8462 100.55 33.1585C100.012 34.417 99.2366 35.5616 98.2643 36.5301C97.2785 37.4796 96.1274 38.2442 94.8668 38.7866C93.5453 39.3547 92.119 39.6439 90.6787 39.6356V39.6397ZM74.1436 35.9939C75.0627 36.8739 76.1347 37.5819 77.3077 38.0839C78.5427 38.6112 79.8747 38.8782 81.2193 38.8679H90.6807C92.0138 38.8756 93.3339 38.6086 94.5575 38.0839C95.7308 37.5815 96.8028 36.8728 97.7216 35.9918C98.6229 35.0933 99.3417 34.0314 99.8391 32.864C100.359 31.6475 100.624 30.3384 100.615 29.0171V15.6119H97.1953V29.0536C97.2001 29.912 97.0163 30.761 96.6567 31.5417C96.3132 32.2899 95.8381 32.9714 95.2538 33.5545C94.6573 34.1412 93.9531 34.6094 93.1792 34.9336C92.3897 35.2714 91.5386 35.4449 90.6787 35.4434H81.1476C80.2806 35.448 79.4221 35.2737 78.6266 34.9316C77.8591 34.6018 77.1635 34.1272 76.5786 33.5342C75.9977 32.9453 75.5287 32.2572 75.1942 31.5031C74.8477 30.7203 74.6712 29.874 74.6761 29.0191V15.6139H71.2499V29.0191C71.2406 30.3403 71.504 31.6495 72.024 32.866C72.5225 34.034 73.242 35.0964 74.1436 35.9959" fill="white"/>
<path d="M90.6787 39.9355H81.2192C79.7264 39.946 78.2478 39.6479 76.8776 39.0601C75.5865 38.5069 74.407 37.7266 73.3961 36.7568C72.3947 35.7604 71.5953 34.5827 71.041 33.2877C70.465 31.9387 70.1724 30.4874 70.1808 29.0224V14.553H75.741V29.0224C75.7365 29.7294 75.8809 30.4295 76.1649 31.0779C76.4492 31.7152 76.8459 32.2971 77.3364 32.7962C77.8277 33.2922 78.4121 33.6883 79.0566 33.962C79.7169 34.2465 80.4298 34.3911 81.1496 34.3865H90.6828C91.3977 34.3879 92.1052 34.2434 92.7614 33.962C93.4077 33.6894 93.9957 33.2972 94.494 32.8064C94.9883 32.3124 95.3905 31.7354 95.6818 31.1023C95.9804 30.4583 96.1341 29.7576 96.1324 29.0488V14.5469H101.693V29.0163C101.701 30.4815 101.407 31.9329 100.83 33.2816C100.278 34.5744 99.4806 35.7501 98.4813 36.7446C97.4707 37.7163 96.2912 38.4987 94.9998 39.054C93.643 39.6383 92.1784 39.9364 90.6992 39.9294L90.6787 39.9355ZM70.7727 15.142V29.0224C70.7659 30.4083 71.0447 31.781 71.5919 33.0562C72.1135 34.2792 72.8664 35.392 73.8098 36.3344C74.7705 37.255 75.891 37.9961 77.1172 38.5218C78.4101 39.0754 79.8049 39.3563 81.2131 39.3465H90.6725C92.072 39.3554 93.458 39.0745 94.7418 38.5218C95.9686 37.996 97.0897 37.255 98.0513 36.3344C98.9954 35.3921 99.7489 34.2794 100.271 33.0562C100.818 31.7809 101.097 30.4083 101.09 29.0224V15.142H96.7181V29.0488C96.7228 29.8396 96.5544 30.622 96.2245 31.3419C95.9034 32.0386 95.4604 32.6733 94.9159 33.2166C94.3631 33.7614 93.7094 34.1952 92.9908 34.4942C92.2609 34.8074 91.4739 34.9685 90.6787 34.9674H81.1476C80.346 34.9719 79.5523 34.8107 78.817 34.4942C78.1027 34.1891 77.4551 33.749 76.9104 33.1984C76.3699 32.6495 75.933 32.0091 75.6202 31.3074C75.3018 30.5844 75.1399 29.8032 75.145 29.0143V15.142H70.7727ZM90.6807 39.1677H81.2192C79.8336 39.1767 78.4611 38.9 77.1889 38.3553C75.9838 37.8381 74.8828 37.1095 73.9388 36.2044C73.0099 35.2791 72.2687 34.1856 71.7557 32.9831C71.2199 31.73 70.9481 30.3815 70.957 29.0204V15.3187H74.971V29.0204C74.9653 29.834 75.1328 30.6396 75.4625 31.3846C75.782 32.1073 76.2309 32.7665 76.7875 33.3304C77.3473 33.898 78.0138 34.3514 78.7494 34.6648C79.5077 34.9899 80.3256 35.1559 81.1517 35.1523H90.6848C91.5039 35.1538 92.3145 34.9886 93.0666 34.6668C93.8059 34.3574 94.4788 33.9107 95.049 33.3507C95.6081 32.7924 96.0623 32.1397 96.3904 31.4232C96.7325 30.6808 96.9073 29.8733 96.9024 29.057V15.3187H100.914V29.0204C100.922 30.3814 100.65 31.7297 100.116 32.9831C99.6028 34.1852 98.8624 35.2787 97.9345 36.2044C96.9896 37.1113 95.8872 37.8414 94.6804 38.3594C93.4197 38.902 92.0591 39.1787 90.6848 39.1718L90.6807 39.1677ZM74.3586 35.7941C75.2519 36.6479 76.2924 37.3358 77.4306 37.8252C78.6283 38.3352 79.9198 38.5932 81.2233 38.5828H90.6828C91.975 38.5907 93.2547 38.332 94.4407 37.8231C95.5797 37.3352 96.6204 36.6471 97.5127 35.7921C98.3843 34.9195 99.0795 33.8894 99.5606 32.7576C100.065 31.5776 100.32 30.308 100.312 29.0265V15.9077H97.4922V29.0488C97.4966 29.9498 97.3038 30.841 96.927 31.6608C96.5689 32.4412 96.073 33.1518 95.4627 33.7589C94.8397 34.3726 94.1033 34.8615 93.2939 35.199C92.4684 35.5531 91.5781 35.735 90.6787 35.7332H81.1476C80.2397 35.7372 79.3409 35.5546 78.5078 35.1969C77.7023 34.8521 76.972 34.3555 76.3574 33.7346C75.7553 33.1195 75.2697 32.4019 74.9239 31.6161C74.5604 30.7964 74.3755 29.9098 74.3812 29.0143V15.9077H71.555V29.0204C71.5465 30.3019 71.8022 31.5716 72.3066 32.7515C72.786 33.8879 73.4812 34.9222 74.3545 35.7982" fill="white"/>
<path d="M145.107 21.9842C145.116 22.9155 144.901 23.8356 144.478 24.6673C144.053 25.4937 143.462 26.225 142.741 26.8162C143.455 27.5008 144.038 28.308 144.462 29.1986C144.889 30.0866 145.109 31.0584 145.107 32.0422C145.114 33.0487 144.894 34.044 144.462 34.9547C144.041 35.842 143.458 36.6437 142.741 37.3189C142.015 38.0001 141.163 38.5371 140.233 38.9011C139.275 39.2804 138.253 39.4735 137.222 39.4699H112.995V15.0176H137.114C137.856 15.0179 138.596 15.108 139.317 15.2857C140.037 15.4595 140.73 15.728 141.378 16.0839C142.017 16.4364 142.602 16.8791 143.114 17.398C143.629 17.9219 144.058 18.5222 144.386 19.1772C144.844 20.0441 145.089 21.0057 145.103 21.9842H145.107ZM117.226 24.7912H137.257C137.692 24.7902 138.125 24.7363 138.547 24.6307C138.959 24.5324 139.352 24.3707 139.713 24.1514C140.051 23.9461 140.338 23.6685 140.554 23.3389C140.771 22.999 140.883 22.6036 140.876 22.2015C140.879 21.789 140.768 21.3836 140.554 21.0296C140.338 20.673 140.044 20.369 139.694 20.14C139.319 19.8954 138.908 19.7097 138.476 19.5896C138.034 19.4583 137.575 19.3899 137.114 19.3864H117.226V24.7912ZM140.628 33.2507C140.803 32.8841 140.888 32.482 140.878 32.0767C140.881 31.64 140.783 31.2084 140.591 30.8154C140.402 30.4267 140.141 30.0768 139.821 29.7836C139.485 29.48 139.097 29.2392 138.674 29.0727C138.237 28.8954 137.769 28.8043 137.296 28.8046H117.226V35.2736H137.296C137.997 35.2711 138.684 35.0809 139.285 34.7232C139.884 34.392 140.356 33.8736 140.628 33.2486" fill="white"/>
<path d="M137.224 39.7639H112.702V14.7227H137.116C137.883 14.7237 138.647 14.8164 139.391 14.9989C140.136 15.1793 140.854 15.4573 141.525 15.8255C142.191 16.1922 142.799 16.6526 143.331 17.1925C143.866 17.7378 144.313 18.362 144.656 19.0428C145.133 19.9519 145.389 20.9591 145.404 21.9838C145.412 22.9614 145.186 23.9268 144.744 24.8009C144.35 25.5673 143.818 26.2556 143.174 26.832C143.81 27.4888 144.336 28.2433 144.73 29.0662C145.175 29.9939 145.405 31.0084 145.404 32.0357C145.411 33.0883 145.181 34.1293 144.73 35.0823C144.293 36.0021 143.687 36.8333 142.944 37.5338C142.19 38.2402 141.308 38.7978 140.343 39.177C139.35 39.5692 138.291 39.7691 137.222 39.766L137.224 39.7639ZM113.292 39.177H137.222C138.215 39.1793 139.2 38.9932 140.122 38.6286C141.017 38.2784 141.837 37.7621 142.537 37.1073C143.227 36.457 143.789 35.6848 144.193 34.8304C144.605 33.9585 144.815 33.0064 144.808 32.0438C144.81 31.1038 144.6 30.1753 144.193 29.3262C143.785 28.4675 143.223 27.6892 142.535 27.029L142.299 26.8015L142.551 26.5984C143.242 26.0323 143.808 25.3322 144.216 24.5409C144.616 23.7502 144.82 22.8764 144.812 21.9919C144.797 21.0589 144.563 20.1422 144.128 19.3149C143.809 18.688 143.395 18.1139 142.899 17.6129C142.407 17.1138 141.845 16.6883 141.23 16.3496C140.605 16.0063 139.936 15.7475 139.242 15.5798C138.544 15.4081 137.828 15.3208 137.11 15.3198H113.294L113.292 39.177ZM137.294 35.5718H116.929V28.5198H137.294C137.806 28.5188 138.313 28.6168 138.787 28.8083C139.24 28.989 139.656 29.249 140.016 29.576C140.362 29.8943 140.645 30.2738 140.851 30.6951C141.062 31.1282 141.171 31.6034 141.169 32.0844C141.178 32.5326 141.083 32.9769 140.89 33.3823C140.593 34.0629 140.079 34.6276 139.426 34.9889C138.78 35.373 138.041 35.5772 137.288 35.5799L137.294 35.5718ZM117.515 34.9909H137.288C137.937 34.9888 138.574 34.8127 139.131 34.4811C139.678 34.1824 140.11 33.7125 140.36 33.1446V33.1284C140.513 32.8024 140.588 32.4458 140.579 32.0864C140.581 31.6947 140.493 31.3078 140.321 30.9551C140.148 30.5991 139.909 30.2787 139.616 30.0107C139.307 29.7314 138.949 29.5099 138.56 29.3566C138.157 29.194 137.727 29.1105 137.292 29.1109H117.523L117.515 34.9909ZM137.251 25.0954H116.929V19.0956H137.116C137.604 19.0963 138.09 19.1647 138.56 19.2987C139.021 19.4285 139.459 19.6271 139.86 19.8877C140.246 20.1412 140.57 20.4762 140.81 20.8687C141.052 21.2685 141.179 21.7266 141.177 22.193C141.183 22.6515 141.054 23.102 140.806 23.4888C140.567 23.8565 140.248 24.1667 139.872 24.3967C139.485 24.6317 139.063 24.8051 138.621 24.9106C138.176 25.0219 137.718 25.0785 137.259 25.0792L137.251 25.0954ZM117.523 24.4902H137.259C137.673 24.4899 138.086 24.4395 138.488 24.3399C138.868 24.2483 139.233 24.0989 139.567 23.8971C139.868 23.7126 140.124 23.4643 140.317 23.17C140.503 22.8776 140.599 22.537 140.591 22.191C140.593 21.8334 140.496 21.4821 140.311 21.1754C140.117 20.8562 139.854 20.5841 139.541 20.3792C139.19 20.1516 138.807 19.9783 138.404 19.8654C137.988 19.7456 137.557 19.684 137.124 19.6826H117.523V24.4902Z" fill="white"/>
<path d="M137.222 39.6619H112.805V14.8359H137.116C137.875 14.8366 138.631 14.9279 139.368 15.1081C140.104 15.285 140.813 15.5582 141.476 15.9205C142.131 16.2826 142.731 16.7369 143.255 17.2692C143.785 17.8073 144.226 18.4241 144.564 19.0972C145.035 19.9913 145.288 20.9827 145.301 21.9915C145.311 22.9528 145.089 23.9026 144.654 24.7619C144.249 25.5426 143.7 26.2406 143.034 26.8194C143.697 27.4875 144.242 28.2613 144.646 29.1084C145.083 30.023 145.309 31.0229 145.307 32.0352C145.314 33.0702 145.088 34.0937 144.646 35.031C144.214 35.9389 143.616 36.7597 142.883 37.4521C142.138 38.15 141.267 38.7014 140.315 39.077C139.333 39.4635 138.286 39.6607 137.23 39.6579L137.222 39.6619ZM113.2 39.274H137.23C138.237 39.2765 139.234 39.0876 140.169 38.7175C141.076 38.3628 141.906 37.8396 142.614 37.1759C143.314 36.5166 143.883 35.7342 144.294 34.8686C144.712 33.9827 144.926 33.0154 144.918 32.0372C144.92 31.0818 144.707 30.1381 144.294 29.2749C143.879 28.4056 143.31 27.6177 142.612 26.9493L142.459 26.8011L142.625 26.665C143.325 26.0896 143.9 25.3784 144.314 24.575C144.724 23.7705 144.935 22.8807 144.929 21.9793C144.914 21.0301 144.677 20.0975 144.234 19.2556C143.914 18.6191 143.495 18.0359 142.993 17.5271C142.495 17.0213 141.925 16.5896 141.302 16.2455C140.669 15.8978 139.992 15.6355 139.289 15.4656C138.582 15.2923 137.858 15.2044 137.13 15.2036H113.192L113.2 39.274ZM137.3 35.4677H117.025V28.6169H137.3C137.798 28.616 138.291 28.7112 138.752 28.8972C139.196 29.072 139.605 29.3252 139.958 29.6446C140.297 29.9535 140.575 30.3228 140.777 30.7333C140.982 31.1523 141.087 31.6123 141.085 32.0778C141.093 32.5106 141.001 32.9395 140.814 33.331C140.526 33.9921 140.027 34.5409 139.393 34.8929C138.762 35.2675 138.041 35.4667 137.306 35.4698L137.3 35.4677ZM117.441 35.0859H137.3C137.966 35.0838 138.62 34.9027 139.19 34.5619C139.754 34.2512 140.198 33.7641 140.454 33.1767V33.1665C140.616 32.8265 140.695 32.4537 140.685 32.0778C140.687 31.6701 140.595 31.2673 140.417 30.8998C140.238 30.533 139.99 30.203 139.688 29.9269C139.37 29.6386 139.001 29.4101 138.6 29.2526C138.186 29.0854 137.742 28.9999 137.294 29.0007H117.429L117.441 35.0859ZM137.259 24.9914H117.025V19.1967H137.108C137.587 19.1981 138.063 19.2665 138.523 19.3998C138.974 19.5257 139.403 19.7196 139.794 19.9746C140.169 20.2189 140.483 20.5438 140.714 20.9251C140.947 21.3088 141.069 21.7487 141.066 22.1966C141.072 22.6356 140.949 23.0667 140.712 23.4376C140.48 23.7933 140.171 24.0931 139.807 24.315C139.426 24.5455 139.012 24.7148 138.578 24.8167C138.141 24.9258 137.693 24.9817 137.243 24.9833L137.259 24.9914ZM117.402 24.5994H137.243C137.661 24.5984 138.078 24.5466 138.484 24.445C138.876 24.3511 139.25 24.1969 139.594 23.988C139.909 23.797 140.176 23.538 140.376 23.2304C140.573 22.9216 140.675 22.5622 140.669 22.1966C140.672 21.8181 140.569 21.4463 140.372 21.1222C140.171 20.79 139.897 20.5068 139.571 20.2935C139.212 20.0611 138.819 19.8844 138.406 19.7694C137.982 19.646 137.542 19.5824 137.099 19.5806H117.419L117.402 24.5994Z" fill="white"/>
<path d="M137.222 39.9545H112.508V14.5293H137.106C137.888 14.53 138.667 14.6248 139.426 14.8116C140.189 14.9973 140.923 15.2821 141.611 15.6586C142.29 16.0361 142.91 16.508 143.454 17.06C144.005 17.62 144.464 18.2614 144.816 18.9611C145.307 19.8958 145.57 20.9316 145.584 21.9854C145.593 22.9934 145.36 23.9891 144.904 24.8899C144.531 25.619 144.035 26.2797 143.438 26.8438C144.029 27.4839 144.521 28.2082 144.896 28.9927C145.351 29.9449 145.586 30.9856 145.586 32.0393C145.593 33.1178 145.357 34.1843 144.896 35.1611C144.447 36.1023 143.827 36.9534 143.067 37.6715C142.295 38.3938 141.392 38.9638 140.405 39.3512C139.389 39.7549 138.304 39.9617 137.21 39.9605L137.222 39.9545ZM113.474 38.9877H137.21C138.178 38.99 139.138 38.8087 140.038 38.4535C140.91 38.1122 141.709 37.6089 142.391 36.9708C143.064 36.3368 143.611 35.5839 144.005 34.7508C144.405 33.9046 144.61 32.9802 144.603 32.0454C144.605 31.1321 144.4 30.2299 144.005 29.405C143.605 28.5696 143.056 27.8127 142.385 27.1708L141.994 26.795L142.404 26.4498C143.074 25.9002 143.623 25.2208 144.019 24.4532C144.406 23.6889 144.603 22.8444 144.595 21.9895C144.579 21.086 144.351 20.1986 143.929 19.3978C143.622 18.7893 143.222 18.2316 142.743 17.7445C142.265 17.2589 141.718 16.8443 141.119 16.5137C140.51 16.1785 139.857 15.9258 139.18 15.7622C138.497 15.5939 137.797 15.5086 137.093 15.5083H113.487L113.474 38.9877ZM137.294 35.7663H116.735V28.3204H137.294C137.83 28.3192 138.361 28.422 138.856 28.623C139.335 28.8129 139.774 29.0883 140.153 29.4355C140.517 29.7692 140.815 30.1674 141.031 30.6094C141.256 31.0691 141.371 31.5734 141.369 32.084C141.378 32.5619 141.275 33.0354 141.068 33.4672C140.755 34.1803 140.215 34.7719 139.53 35.1509C138.853 35.5493 138.081 35.7598 137.294 35.7603V35.7663ZM117.716 34.7874H137.294C137.907 34.7847 138.509 34.6177 139.035 34.304C139.542 34.0247 139.942 33.587 140.173 33.0589C140.319 32.7519 140.389 32.415 140.378 32.0759C140.38 31.7125 140.299 31.3535 140.141 31.0258C139.978 30.6922 139.753 30.3918 139.479 30.1402C139.186 29.879 138.849 29.6726 138.482 29.5309C138.102 29.3772 137.696 29.2985 137.286 29.2994H117.707L117.716 34.7874ZM137.259 25.2738H116.735V18.9083H137.106C137.612 18.9105 138.116 18.9829 138.603 19.1236C139.082 19.2572 139.539 19.4626 139.956 19.7329C140.367 20.0011 140.712 20.3571 140.966 20.7749C141.225 21.2044 141.361 21.696 141.359 22.1967C141.363 22.6927 141.22 23.179 140.949 23.5961C140.694 23.9896 140.354 24.3214 139.952 24.5669C139.548 24.8116 139.108 24.9925 138.648 25.1031C138.187 25.2175 137.715 25.2762 137.241 25.2778L137.259 25.2738ZM117.697 24.307H137.241C137.635 24.3058 138.028 24.2567 138.41 24.1607C138.771 24.074 139.117 23.9322 139.434 23.7403C139.711 23.5722 139.947 23.3437 140.122 23.0721C140.289 22.8105 140.375 22.5062 140.37 22.1967C140.372 21.8726 140.284 21.5542 140.116 21.2766C139.937 20.9814 139.694 20.7301 139.403 20.5413C139.07 20.3244 138.704 20.16 138.32 20.0539C137.921 19.9367 137.507 19.8765 137.091 19.8751H117.716L117.697 24.307Z" fill="white"/>
<path d="M161.118 15.248H156.923V39.2393H161.118V15.248Z" fill="white"/>
<path d="M161.419 39.5336H156.626V14.9473H161.419V39.5336ZM157.224 38.9446H160.825V15.5444H157.22L157.224 38.9446Z" fill="white"/>
<path d="M161.505 39.6261H156.536V14.8672H161.505V39.6261ZM157.31 38.8584H160.731V15.6349H157.31V38.8584Z" fill="white"/>
<path d="M161.8 39.9163H156.239V14.5703H161.8V39.9163ZM156.833 39.3272H161.208V15.1573H156.833V39.3272ZM161.028 39.1485H157.016V15.3381H161.028V39.1485ZM157.607 38.5595H160.432V15.9271H157.603L157.607 38.5595Z" fill="white"/>
<path d="M177.282 15.248H173.088V39.2393H177.282V15.248Z" fill="white"/>
<path d="M177.577 39.5336H172.791V14.9473H177.577V39.5336ZM173.383 38.9446H176.983V15.5444H173.383V38.9446Z" fill="white"/>
<path d="M177.669 39.6261H172.695V14.8672H177.663L177.669 39.6261ZM173.477 38.8584H176.897V15.6349H173.477V38.8584Z" fill="white"/>
<path d="M177.966 39.9163H172.406V14.5703H177.966V39.9163ZM173 39.3272H177.374V15.1573H173V39.3272ZM177.192 39.1485H173.178V15.3381H177.192V39.1485ZM173.772 38.5595H176.598V15.9271H173.772V38.5595Z" fill="white"/>
<path d="M219.316 19.4769C219.332 21.09 218.951 22.6826 218.204 24.1159C217.475 25.511 216.433 26.7209 215.157 27.652C216.403 28.6042 217.429 29.8099 218.167 31.1881C218.937 32.6141 219.332 34.2096 219.316 35.8271V39.2393H215.087V35.8271C215.094 35.0088 214.928 34.1981 214.602 33.4467C214.29 32.7274 213.84 32.0754 213.277 31.5273C212.707 30.9769 212.039 30.5367 211.306 30.2294C210.553 29.9095 209.742 29.7464 208.923 29.7501H192.726V39.2393H188.531V15.2461H192.726V25.5173H208.929C209.748 25.5204 210.559 25.3573 211.313 25.038C212.045 24.7298 212.713 24.2898 213.283 23.7401C213.846 23.1921 214.296 22.5401 214.608 21.8207C214.932 21.0808 215.098 20.2818 215.093 19.4748V15.2461H219.322L219.316 19.4769Z" fill="white"/>
<path d="M219.613 39.5336H214.792V35.8289C214.798 35.0505 214.641 34.2794 214.331 33.5642C214.034 32.8798 213.605 32.259 213.07 31.7362C212.525 31.2128 211.888 30.7935 211.19 30.4993C210.474 30.1958 209.703 30.041 208.925 30.0443H193.022V39.5336H188.234V14.9473H193.02V25.2185H208.923C209.702 25.2215 210.473 25.0667 211.19 24.7635C211.888 24.4692 212.525 24.0499 213.07 23.5266C213.606 23.0045 214.035 22.3835 214.331 21.6986C214.64 20.9938 214.797 20.2328 214.792 19.4644V14.9473H219.613V19.4725C219.627 21.1325 219.235 22.7711 218.47 24.2476C217.778 25.5668 216.814 26.7266 215.64 27.6517C216.784 28.5912 217.731 29.7435 218.429 31.0436C219.221 32.5127 219.628 34.1552 219.613 35.8208V39.5336ZM215.386 38.9446H219.021V35.8289C219.035 34.2607 218.653 32.7139 217.909 31.33C217.19 29.9898 216.191 28.8164 214.98 27.8873L214.669 27.6497L214.985 27.4181C216.223 26.5125 217.235 25.3376 217.944 23.9836C218.666 22.5913 219.035 21.046 219.021 19.4807V15.5444H215.386V19.4807C215.389 20.3274 215.216 21.1656 214.876 21.9423C214.547 22.6956 214.075 23.379 213.485 23.9551C212.888 24.5294 212.189 24.9894 211.423 25.3119C210.633 25.6468 209.782 25.8182 208.923 25.8156H192.429V15.5444H188.828V38.9466H192.429V29.4574H208.923C209.782 29.4543 210.633 29.6257 211.423 29.9611C212.189 30.2829 212.887 30.7429 213.483 31.3178C214.073 31.8931 214.545 32.5759 214.874 33.3286C215.216 34.1182 215.39 34.9695 215.384 35.8289L215.386 38.9446Z" fill="white"/>
<path d="M219.703 39.6242H214.7V35.8281C214.708 35.0602 214.554 34.2991 214.247 33.5939C213.955 32.9203 213.533 32.3092 213.006 31.7943C212.469 31.2784 211.841 30.8653 211.153 30.5757C210.448 30.2766 209.689 30.1238 208.923 30.1268H193.113V39.6161H188.144V14.8652H193.113V25.1364H208.923C209.689 25.139 210.448 24.9863 211.153 24.6876C211.841 24.3984 212.47 23.9852 213.006 23.4689C213.534 22.9548 213.956 22.3436 214.247 21.6694C214.551 20.9782 214.705 20.2317 214.7 19.4778V14.8652H219.703V19.4799C219.718 21.1543 219.322 22.8072 218.548 24.2956C217.869 25.5932 216.928 26.7382 215.783 27.6591C216.898 28.5942 217.823 29.7308 218.509 31.0083C219.307 32.4908 219.717 34.1478 219.703 35.8281V39.6242ZM215.474 38.8564H218.929V35.8281C218.943 34.2749 218.565 32.7429 217.829 31.3719C217.116 30.0421 216.125 28.8782 214.923 27.9576L214.514 27.6469L214.923 27.3463C216.15 26.4477 217.153 25.2826 217.856 23.9401C218.572 22.5587 218.938 21.025 218.923 19.4717V15.633H215.468V19.4799C215.472 20.3391 215.296 21.1898 214.952 21.9781C214.618 22.7391 214.139 23.4288 213.541 24.0092C212.936 24.5921 212.228 25.059 211.452 25.3863C210.65 25.7255 209.786 25.899 208.915 25.8961H192.326V15.633H188.906V38.8564H192.326V29.3672H208.915C209.787 29.3642 210.65 29.5384 211.452 29.879C212.228 30.2052 212.936 30.6714 213.541 31.2541C214.138 31.8351 214.617 32.5246 214.952 33.2852C215.299 34.0856 215.475 34.9487 215.468 35.82L215.474 38.8564Z" fill="white"/>
<path d="M220 39.9163H214.403V35.8277C214.41 35.1024 214.264 34.3836 213.975 33.7174C213.698 33.0785 213.299 32.4991 212.799 32.0113C212.289 31.5205 211.691 31.1279 211.036 30.8535C210.368 30.5706 209.649 30.4261 208.923 30.429H193.41V39.9163H187.849V14.5703H193.41V24.8415H208.923C209.649 24.8445 210.368 24.7 211.036 24.417C211.691 24.1427 212.289 23.7501 212.799 23.2593C213.299 22.7723 213.698 22.1935 213.975 21.5552C214.262 20.9003 214.407 20.1934 214.403 19.4795V14.5703H220V19.4795C220.016 21.2013 219.608 22.901 218.812 24.4312C218.17 25.6611 217.298 26.7584 216.242 27.6647C217.266 28.5801 218.122 29.6653 218.771 30.8718C219.593 32.397 220.016 34.1025 220 35.8317V39.9163ZM214.997 39.3272H219.406V35.8277C219.419 34.1989 219.021 32.5929 218.247 31.1562C217.576 29.9106 216.673 28.8029 215.585 27.8922L215.31 27.6607L215.589 27.4373C216.702 26.5418 217.617 25.4286 218.278 24.1672C219.027 22.7231 219.412 21.1199 219.398 19.4957V15.1593H214.989V19.4795C214.994 20.2738 214.831 21.0604 214.511 21.7888C214.205 22.4972 213.762 23.1394 213.207 23.6797C212.645 24.2214 211.986 24.6546 211.263 24.9573C210.522 25.2721 209.723 25.4332 208.917 25.4305H192.809V15.1593H188.435V39.3293H192.809V29.8502H208.917C209.723 29.8467 210.522 30.0071 211.263 30.3214C211.985 30.6246 212.644 31.0578 213.207 31.599C213.762 32.1403 214.205 32.7832 214.514 33.4919C214.834 34.2327 214.996 35.0316 214.989 35.8378L214.997 39.3272ZM219.226 39.1485H215.177V35.8277C215.184 34.9965 215.018 34.1728 214.688 33.4087C214.37 32.6801 213.913 32.0194 213.342 31.4629C212.765 30.9057 212.087 30.46 211.345 30.1488C210.581 29.8234 209.757 29.6568 208.925 29.6593H192.631V39.1505H188.617V15.3381H192.631V25.6093H208.919C209.75 25.612 210.574 25.4469 211.339 25.1238C212.081 24.8118 212.758 24.3654 213.336 23.8077C213.908 23.2513 214.365 22.5897 214.681 21.8599C215.01 21.1089 215.178 20.2982 215.173 19.4795V15.3381H219.222V19.4795C219.237 21.0774 218.859 22.6549 218.122 24.0758C217.399 25.4582 216.366 26.6581 215.103 27.5835L215.005 27.6526L215.099 27.7257C216.334 28.6718 217.352 29.8674 218.085 31.2334C218.844 32.6477 219.234 34.2278 219.22 35.8297L219.226 39.1485ZM215.771 38.5595H218.638V35.8277C218.652 34.3227 218.286 32.8383 217.573 31.5096C216.88 30.2169 215.917 29.0855 214.749 28.1908L214.03 27.6424L214.759 27.1082C215.948 26.2353 216.921 25.1052 217.604 23.8036C218.293 22.4657 218.645 20.9818 218.628 19.4795V15.9271H215.761V19.4795C215.765 20.3792 215.581 21.27 215.22 22.0955C214.872 22.8943 214.372 23.6186 213.746 24.2281C213.115 24.837 212.375 25.324 211.565 25.6641C210.723 26.0209 209.817 26.2027 208.902 26.1983H192.021V15.9271H189.195V38.5615H192.021V29.0723H208.902C209.817 29.0681 210.724 29.2506 211.565 29.6085C212.374 29.9487 213.113 30.4349 213.744 31.0424C214.369 31.6525 214.87 32.3766 215.218 33.1751C215.581 34.0126 215.766 34.9159 215.759 35.8277L215.771 38.5595Z" fill="white"/>
<path d="M28.108 30.5025C28.2943 30.3379 28.4848 30.1795 28.665 30.0028L28.8698 29.7997C26.8097 31.8776 24.0214 33.0882 21.0846 33.1797C18.1477 33.2713 15.2883 32.2367 13.1007 30.2912C11.9935 29.2705 11.1047 28.0391 10.4875 26.6706C9.8702 25.302 9.53702 23.8242 9.50778 22.3252C9.47854 20.8262 9.75384 19.3368 10.3173 17.9455C10.8807 16.5543 11.7207 15.2898 12.7873 14.2273L18.9004 8.15642C19.804 7.25979 20.3113 6.04392 20.311 4.77627C20.3106 3.50863 19.8025 2.29305 18.8984 1.39696C17.9943 0.500871 16.7684 -0.00233381 15.4902 -0.00195291C14.212 -0.00157201 12.9864 0.502363 12.0829 1.39899L6.24827 7.18963C2.8919 10.5262 0.752389 14.8769 0.167881 19.5543C-0.416627 24.2316 0.587199 28.9687 3.02071 33.0169C6.90851 35.3627 11.4619 36.3864 15.9896 35.9326C20.5173 35.4788 24.772 33.5723 28.108 30.5025Z" fill="white"/>
<path d="M42.933 28.0429C42.7662 27.192 42.369 26.4022 41.7841 25.758C41.1992 25.1139 40.4486 24.6397 39.6127 24.3864C38.7769 24.133 37.8872 24.11 37.0392 24.3197C36.1911 24.5295 35.4166 24.9642 34.7986 25.5772L28.8596 31.4674L28.6548 31.6705C28.4745 31.8492 28.2841 32.0076 28.0977 32.1701C24.76 35.2341 20.5058 37.1351 15.9804 37.5848C11.455 38.0346 6.90508 37.0085 3.02069 34.6623C3.1149 34.8126 3.19886 34.9689 3.29511 35.1192C3.47738 35.3914 3.66989 35.6615 3.86444 35.9317C4.08357 36.2363 4.3068 36.541 4.54641 36.8335C4.84745 37.1991 5.17103 37.5525 5.50279 37.9018C5.70759 38.1049 5.88576 38.3284 6.09465 38.5315C6.35883 38.7874 6.63531 39.021 6.91383 39.2586C7.19235 39.4962 7.41762 39.7156 7.67976 39.9228C7.94189 40.1299 8.25932 40.3493 8.55218 40.5585C8.84503 40.7677 9.08669 40.9546 9.37135 41.1313C9.65602 41.308 9.98574 41.4948 10.295 41.6736C10.6042 41.8523 10.8561 42.0067 11.1428 42.1529C11.4295 42.2991 11.7859 42.4515 12.1074 42.5957C12.4289 42.7399 12.6911 42.8719 12.9901 42.9897C13.2891 43.1075 13.6516 43.2213 13.9854 43.333C14.3192 43.4447 14.5875 43.5483 14.8947 43.6376C15.2326 43.7351 15.5746 43.8042 15.9186 43.8854C16.2279 43.9565 16.533 44.0418 16.8463 44.0885C17.1924 44.1535 17.5426 44.1901 17.8887 44.2388C18.2 44.2795 18.5031 44.3343 18.8226 44.3627C19.1748 44.3952 19.5291 44.3993 19.8834 44.4135C20.1947 44.4257 20.4978 44.4521 20.8173 44.4501C21.1736 44.4501 21.5279 44.4176 21.8843 44.3993C22.1915 44.383 22.4987 44.379 22.8079 44.3485C23.1642 44.314 23.5185 44.249 23.8728 44.1962C24.1759 44.1495 24.4872 44.119 24.7842 44.0601C25.1405 43.991 25.4907 43.8915 25.8429 43.8042C26.1378 43.729 26.4368 43.6722 26.7297 43.5848C27.086 43.4792 27.4342 43.3452 27.7844 43.2192C28.065 43.1197 28.3517 43.0344 28.6302 42.9207C28.9865 42.7764 29.3347 42.6018 29.6849 42.4373C29.947 42.3134 30.2132 42.2057 30.4713 42.0717C30.8338 41.8828 31.1819 41.6654 31.5342 41.4501C31.7676 41.308 32.0093 41.1861 32.2387 41.0439C32.6237 40.7921 32.9903 40.5057 33.3609 40.2315C33.5452 40.0934 33.7378 39.9715 33.9159 39.8253C34.4651 39.3813 34.9914 38.9102 35.4928 38.4137L41.6244 32.3326C42.3038 31.6602 42.7646 30.8014 42.9473 29.8669C43.0653 29.2631 43.0653 28.6426 42.9473 28.0389" fill="white"/>
<path d="M56.6501 15.9837C52.7623 13.6379 48.209 12.6142 43.6813 13.068C39.1536 13.5218 34.8988 15.4283 31.5629 18.4982C31.3745 18.6607 31.184 18.8211 31.0058 18.9978L30.801 19.2009C32.8611 17.123 35.6494 15.9124 38.5863 15.8209C41.5231 15.7293 44.3826 16.7639 46.5702 18.7094C47.6788 19.7294 48.5687 20.9605 49.1868 22.3293C49.8048 23.698 50.1384 25.1763 50.1674 26.6757C50.1965 28.1752 49.9205 29.6651 49.3559 31.0564C48.7913 32.4477 47.9497 33.7118 46.8815 34.7733L40.7704 40.8442C39.8669 41.7403 39.3593 42.9557 39.3593 44.2229C39.3593 45.4902 39.8669 46.7055 40.7704 47.6016C41.6739 48.4977 42.8994 49.0011 44.1772 49.0011C45.4549 49.0011 46.6804 48.4977 47.5839 47.6016L53.4246 41.811C56.7807 38.4742 58.9198 34.1233 59.5039 29.446C60.0881 24.7687 59.0839 20.0317 56.6501 15.9837Z" fill="white"/>
<path d="M56.3737 13.8641C56.1914 13.5899 55.9989 13.3218 55.8043 13.0517C55.5852 12.747 55.362 12.4424 55.1244 12.1519C54.8234 11.7863 54.4977 11.4329 54.166 11.0836C53.9612 10.8805 53.783 10.657 53.5762 10.4539C53.312 10.198 53.0355 9.96444 52.757 9.72478C52.4785 9.48511 52.2532 9.26981 51.9911 9.06061C51.7289 8.85141 51.4094 8.63205 51.1166 8.42285C50.8237 8.21365 50.5821 8.02882 50.2974 7.85008C50.0128 7.67134 49.683 7.48652 49.3738 7.30981C49.0646 7.13311 48.8127 6.97468 48.5219 6.82641C48.231 6.67814 47.8829 6.52784 47.5593 6.38567C47.2357 6.24349 46.9757 6.10944 46.6767 5.99164C46.3469 5.86165 46.009 5.75806 45.6752 5.64432C45.3742 5.54276 45.0772 5.44121 44.7741 5.34372C44.4342 5.24623 44.0881 5.17514 43.7502 5.09593C43.443 5.02484 43.1358 4.94156 42.8306 4.89282C42.4825 4.82782 42.1323 4.79126 41.7821 4.74252C41.4728 4.69986 41.1677 4.64502 40.8523 4.61862C40.498 4.58612 40.1417 4.58409 39.7874 4.56987C39.4781 4.55769 39.173 4.53128 38.8597 4.53331C38.4992 4.53331 38.1408 4.56581 37.7825 4.58409C37.4794 4.60237 37.1681 4.6044 36.8691 4.63487C36.5086 4.6694 36.1502 4.73439 35.7898 4.78923C35.4908 4.83391 35.1898 4.86438 34.8928 4.92328C34.5324 4.99234 34.1781 5.09186 33.8217 5.18123C33.5309 5.25435 33.236 5.31325 32.9473 5.39856C32.5868 5.50621 32.2346 5.64229 31.8782 5.76822C31.5997 5.86774 31.3192 5.95101 31.0447 6.06069C30.6843 6.20693 30.3341 6.38364 29.9818 6.55018C29.7238 6.67205 29.4576 6.77767 29.2016 6.91172C28.835 7.10264 28.4828 7.31794 28.1244 7.54136C27.895 7.67947 27.6574 7.80134 27.4342 7.94757C27.0431 8.20349 26.6703 8.4919 26.2956 8.77829C26.1174 8.91234 25.929 9.03217 25.7549 9.17232C25.2054 9.61959 24.6791 10.0941 24.178 10.5941L18.0608 16.6589C17.6049 17.1006 17.2419 17.6276 16.9928 18.2094C16.7437 18.7912 16.6135 19.4162 16.6098 20.0483C16.606 20.6803 16.7288 21.3068 16.9709 21.8915C17.2131 22.4762 17.5698 23.0073 18.0205 23.4543C18.4711 23.9012 19.0067 24.255 19.5962 24.4952C20.1858 24.7354 20.8175 24.8571 21.4548 24.8534C22.0921 24.8497 22.7223 24.7206 23.3089 24.4735C23.8956 24.2265 24.4269 23.8665 24.8722 23.4143L31.0038 17.3353C31.184 17.1565 31.3744 16.9981 31.5608 16.8356C34.8967 13.765 39.1517 11.8578 43.6799 11.4036C48.208 10.9494 52.7619 11.9731 56.6501 14.3191C56.5559 14.1668 56.472 14.0124 56.3757 13.8621" fill="white"/>
</g>
<defs>
<clipPath id="clip0_231_12409">
<rect width="220" height="49" fill="white"/>
</clipPath>
</defs>
</svg>
