<svg width="124" height="34" viewBox="0 0 124 34" fill="none" xmlns="http://www.w3.org/2000/svg">
<g clip-path="url(#clip0_104_6462)" filter="url(#filter0_d_104_6462)">
<path d="M42.9514 19.2481C42.4579 18.7529 42.0645 18.1674 41.7928 17.5237C41.5071 16.8532 41.3623 16.1314 41.3673 15.4028V8.08506H43.5745V15.4028C43.5713 15.8278 43.6582 16.2487 43.8293 16.6378C43.9957 17.0162 44.2295 17.3612 44.5193 17.6563C44.8105 17.9531 45.1572 18.19 45.5397 18.3536C45.9332 18.5242 46.358 18.6108 46.7869 18.6079H51.8135C52.2391 18.6089 52.6604 18.5223 53.051 18.3536C53.4354 18.1925 53.7851 17.959 54.0812 17.666C54.3724 17.3736 54.609 17.0316 54.7798 16.6562C54.9571 16.2686 55.0474 15.8471 55.0444 15.4211V8.08182H57.2558V15.3995C57.2608 16.1281 57.116 16.85 56.8304 17.5205C56.558 18.1646 56.1634 18.7501 55.6685 19.2449C55.167 19.7295 54.5816 20.1195 53.9408 20.3959C53.2699 20.6858 52.5457 20.8326 51.8146 20.8269H46.8247C46.0876 20.8339 45.3572 20.6871 44.6802 20.3959C44.0394 20.1195 43.454 19.7295 42.9525 19.2449" fill="black"/>
<path d="M51.8124 20.9864H46.8247C46.0659 20.9924 45.3142 20.8404 44.6176 20.5403C43.9589 20.2554 43.3574 19.8538 42.8423 19.3548C42.3343 18.8455 41.9289 18.2436 41.6481 17.5819C41.3542 16.8916 41.205 16.1485 41.2096 15.3985V7.92555H43.7332V15.3995C43.7306 15.8026 43.8131 16.2018 43.9751 16.571C44.1345 16.9312 44.3576 17.2598 44.6338 17.541C44.9115 17.8231 45.2416 18.0486 45.6056 18.2049C45.9805 18.3666 46.385 18.4488 46.7934 18.4463H51.8189C52.2236 18.4467 52.6242 18.3645 52.9959 18.2049C53.3616 18.0508 53.6944 17.8284 53.9764 17.5496C54.2545 17.2702 54.4805 16.9436 54.6437 16.585C54.8112 16.2176 54.8967 15.8183 54.8942 15.4146V7.92555H57.4178V15.3995C57.4223 16.1495 57.2735 16.8924 56.9805 17.583C56.6996 18.245 56.2938 18.8469 55.7851 19.3559C55.2694 19.8551 54.6671 20.2567 54.0077 20.5413C53.3171 20.8404 52.5717 20.9924 51.8189 20.9875L51.8124 20.9864ZM43.0723 19.136C43.5608 19.607 44.1303 19.9863 44.7536 20.2558C45.4109 20.5382 46.1199 20.6814 46.8355 20.6761H51.8232C52.5328 20.6803 53.2356 20.5372 53.8868 20.2558C54.5106 19.9868 55.0806 19.6074 55.5691 19.136C56.0487 18.6548 56.4314 18.0862 56.6965 17.4612C56.973 16.8099 57.1133 16.1091 57.109 15.4017V8.23809H55.2009V15.4179C55.2037 15.8665 55.1086 16.3104 54.9223 16.7187C54.744 17.1107 54.4968 17.4677 54.1924 17.7727C53.882 18.0798 53.5154 18.3246 53.1125 18.4937C52.7033 18.6697 52.2623 18.7603 51.8167 18.7599H46.7869C46.3362 18.7627 45.8898 18.6721 45.476 18.4937C45.0757 18.3209 44.7127 18.0724 44.407 17.7619C44.1041 17.4533 43.8598 17.0926 43.6857 16.6971C43.5062 16.2896 43.4146 15.849 43.4168 15.4039V8.23809H41.5206V15.3995C41.5162 16.1069 41.6566 16.8078 41.9331 17.4591C42.1985 18.0845 42.5815 18.6534 43.0615 19.1349" fill="black"/>
<path d="M51.8124 21.0339H46.8236C46.0582 21.0395 45.2999 20.8861 44.5971 20.5834C43.9326 20.2987 43.3253 19.8963 42.8045 19.3957C42.2922 18.8815 41.8832 18.2743 41.5995 17.6067C41.3036 16.9104 41.1533 16.1612 41.1578 15.4049V7.87813H43.7764V15.3995C43.7736 15.7963 43.8545 16.1892 44.0139 16.5527C44.1706 16.9079 44.3901 17.2321 44.6618 17.5097C44.9349 17.788 45.2599 18.0103 45.6186 18.1639C45.9867 18.3226 46.3838 18.4033 46.7848 18.401H51.8113C52.2094 18.4015 52.6033 18.3208 52.9689 18.1639C53.3295 18.012 53.6576 17.7925 53.9354 17.5173C54.2095 17.242 54.4322 16.9201 54.593 16.5667C54.7578 16.2054 54.8418 15.8127 54.8392 15.4157V7.87167H57.4588V15.3931C57.4632 16.1493 57.3129 16.8986 57.0172 17.5949C56.7339 18.2627 56.3248 18.87 55.8121 19.3839C55.2923 19.8877 54.6854 20.2934 54.0207 20.5812C53.3239 20.8827 52.5718 21.0361 51.8124 21.0317V21.0339ZM43.0939 19.0994C43.5786 19.5663 44.1438 19.942 44.7623 20.2083C45.4134 20.4882 46.1158 20.6298 46.8247 20.6243H51.8135C52.5164 20.6284 53.2125 20.4868 53.8576 20.2083C54.4763 19.9418 55.0415 19.5657 55.5259 19.0983C56.0012 18.6215 56.3802 18.0581 56.6425 17.4386C56.9168 16.7931 57.0561 16.0985 57.0517 15.3974V8.28444H55.2484V15.4168C55.251 15.8722 55.1541 16.3227 54.9644 16.737C54.7833 17.134 54.5328 17.4956 54.2247 17.805C53.9102 18.1163 53.5389 18.3647 53.1309 18.5368C52.7146 18.716 52.2658 18.8081 51.8124 18.8073H46.7869C46.3298 18.8097 45.8771 18.7172 45.4577 18.5357C45.053 18.3607 44.6862 18.1089 44.3778 17.7942C44.0715 17.4818 43.8243 17.1167 43.6479 16.7165C43.4652 16.3012 43.3721 15.8521 43.3747 15.3985V8.28551H41.5681V15.3985C41.5632 16.0995 41.7021 16.7942 41.9763 17.4397C42.2391 18.0594 42.6185 18.6232 43.0939 19.1004" fill="black"/>
<path d="M51.8124 21.1901H46.8247C46.0376 21.1957 45.2579 21.0375 44.5355 20.7256C43.8547 20.4321 43.2328 20.0181 42.6998 19.5035C42.1718 18.9748 41.7502 18.3499 41.458 17.6628C41.1543 16.9469 41 16.1769 41.0044 15.3995V7.72187H43.9361V15.3995C43.9338 15.7747 44.0099 16.1461 44.1597 16.4902C44.3096 16.8284 44.5187 17.1371 44.7773 17.4019C45.0364 17.6652 45.3445 17.8753 45.6844 18.0206C46.0325 18.1715 46.4084 18.2482 46.788 18.2458H51.8145C52.1915 18.2465 52.5646 18.1698 52.9106 18.0206C53.2513 17.8759 53.5614 17.6678 53.8241 17.4073C54.0847 17.1452 54.2968 16.8391 54.4504 16.5031C54.6078 16.1614 54.6889 15.7896 54.688 15.4136V7.71863H57.6197V15.3963C57.624 16.1737 57.4693 16.9439 57.1651 17.6595C56.8739 18.3455 56.4534 18.9693 55.9265 19.497C55.3936 20.0126 54.7717 20.4277 54.0908 20.7224C53.3754 21.0325 52.6031 21.1906 51.8232 21.1869L51.8124 21.1901ZM41.3165 8.0344V15.3995C41.3129 16.1349 41.4599 16.8632 41.7484 17.5399C42.0235 18.1889 42.4204 18.7793 42.9179 19.2793C43.4244 19.7678 44.0152 20.1611 44.6618 20.44C45.3435 20.7338 46.0789 20.8828 46.8214 20.8776H51.8091C52.5471 20.8823 53.2778 20.7333 53.9548 20.44C54.6016 20.161 55.1927 19.7678 55.6997 19.2793C56.1975 18.7794 56.5949 18.1889 56.8703 17.5399C57.1586 16.8632 57.3056 16.1349 57.3022 15.3995V8.0344H54.9968V15.4136C54.9993 15.8332 54.9105 16.2483 54.7365 16.6303C54.5672 17 54.3336 17.3368 54.0465 17.625C53.7551 17.9141 53.4104 18.1443 53.0315 18.3029C52.6467 18.4691 52.2317 18.5546 51.8124 18.554H46.7869C46.3642 18.5564 45.9457 18.4709 45.558 18.3029C45.1814 18.141 44.8399 17.9075 44.5527 17.6153C44.2678 17.3241 44.0374 16.9843 43.8724 16.612C43.7046 16.2284 43.6192 15.8138 43.6219 15.3952V8.0344H41.3165ZM51.8135 20.7828H46.8247C46.094 20.7875 45.3704 20.6407 44.6996 20.3517C44.0642 20.0773 43.4837 19.6906 42.9859 19.2104C42.4961 18.7194 42.1053 18.1392 41.8348 17.5011C41.5523 16.8362 41.409 16.1207 41.4137 15.3985V8.12817H43.5301V15.3985C43.5271 15.8302 43.6154 16.2576 43.7893 16.6529C43.9578 17.0364 44.1945 17.3862 44.4879 17.6854C44.7831 17.9866 45.1346 18.2271 45.5224 18.3935C45.9222 18.566 46.3535 18.654 46.789 18.6521H51.8156C52.2475 18.6529 52.6749 18.5653 53.0715 18.3945C53.4613 18.2304 53.8161 17.9933 54.1167 17.6962C54.4115 17.3999 54.651 17.0536 54.824 16.6734C55.0044 16.2795 55.0965 15.851 55.094 15.4179V8.12817H57.2093V15.3985C57.2135 16.1206 57.0702 16.836 56.7882 17.5011C56.5178 18.139 56.1275 18.7192 55.6382 19.2104C55.14 19.6916 54.5587 20.079 53.9224 20.3538C53.2577 20.6418 52.5402 20.7886 51.8156 20.7849L51.8135 20.7828ZM43.2073 18.9927C43.6783 19.4457 44.2269 19.8107 44.827 20.0704C45.4586 20.341 46.1395 20.4779 46.8268 20.4724H51.8145C52.4959 20.4766 53.1707 20.3393 53.796 20.0693C54.3966 19.8104 54.9453 19.4453 55.4157 18.9916C55.8753 18.5286 56.2419 17.982 56.4956 17.3815C56.7613 16.7553 56.8961 16.0817 56.8919 15.4017V8.4407H55.4049V15.4136C55.4073 15.8916 55.3056 16.3645 55.1069 16.7995C54.9181 17.2136 54.6567 17.5906 54.3348 17.9128C54.0064 18.2384 53.6181 18.4978 53.1913 18.6769C52.756 18.8648 52.2866 18.9613 51.8124 18.9603H46.7869C46.3082 18.9625 45.8343 18.8656 45.395 18.6758C44.9703 18.4928 44.5852 18.2293 44.2612 17.8999C43.9437 17.5735 43.6876 17.1927 43.5053 16.7758C43.3136 16.3408 43.2161 15.8704 43.2191 15.3952V8.4407H41.729V15.3985C41.7245 16.0785 41.8593 16.7522 42.1253 17.3782C42.378 17.9812 42.7446 18.5301 43.2051 18.9948" fill="black"/>
<path d="M80.5108 11.6652C80.5158 12.1594 80.4022 12.6476 80.1793 13.0889C79.9554 13.5274 79.6437 13.9155 79.2637 14.2291C79.64 14.5924 79.9473 15.0207 80.1707 15.4933C80.3959 15.9645 80.5121 16.4801 80.5108 17.0021C80.5148 17.5362 80.3985 18.0643 80.1707 18.5476C79.9491 19.0183 79.6415 19.4438 79.2637 19.802C78.8804 20.1635 78.4314 20.4484 77.9409 20.6416C77.436 20.8428 76.8971 20.9453 76.3535 20.9433H63.5792V7.96866H76.2963C76.6879 7.96885 77.0781 8.01662 77.4582 8.11092C77.8376 8.20317 78.2029 8.34561 78.5445 8.53447C78.8819 8.72153 79.1903 8.9564 79.4602 9.23175C79.7315 9.50975 79.9578 9.82827 80.1308 10.1758C80.3722 10.6358 80.5016 11.146 80.5087 11.6652H80.5108ZM65.8101 13.1547H76.3719C76.6013 13.1541 76.8298 13.1255 77.0522 13.0695C77.2691 13.0173 77.4764 12.9315 77.6666 12.8152C77.8448 12.7062 77.9965 12.559 78.1104 12.3841C78.2246 12.2037 78.2836 11.9939 78.2799 11.7806C78.2817 11.5617 78.223 11.3465 78.1104 11.1587C77.9965 10.9695 77.8415 10.8082 77.6569 10.6867C77.4591 10.5569 77.2423 10.4584 77.0144 10.3946C76.7813 10.325 76.5396 10.2887 76.2963 10.2868H65.8101V13.1547ZM78.1493 17.6434C78.2414 17.4489 78.2866 17.2355 78.281 17.0204C78.2828 16.7887 78.2311 16.5597 78.1298 16.3512C78.03 16.145 77.8923 15.9592 77.7238 15.8037C77.5467 15.6426 77.3418 15.5148 77.1191 15.4265C76.8884 15.3324 76.6416 15.2841 76.3924 15.2842H65.8101V18.7168H76.3924C76.7619 18.7154 77.1241 18.6145 77.4409 18.4247C77.757 18.2489 78.006 17.9739 78.1493 17.6423" fill="black"/>
<path d="M76.3546 21.0996H63.4248V7.81239H76.2974C76.7017 7.81292 77.1045 7.86214 77.4971 7.95896C77.89 8.0547 78.2683 8.20221 78.6222 8.3976C78.9732 8.59213 79.294 8.83644 79.5746 9.1229C79.8568 9.41229 80.0925 9.74346 80.2733 10.1047C80.5248 10.5871 80.6597 11.1215 80.6674 11.6652C80.6716 12.1839 80.5525 12.6962 80.3197 13.16C80.1118 13.5667 79.8311 13.9319 79.4915 14.2378C79.8272 14.5863 80.1043 14.9866 80.3122 15.4233C80.5467 15.9155 80.6681 16.4538 80.6674 16.9989C80.6712 17.5574 80.5499 18.1098 80.3122 18.6155C80.0817 19.1035 79.7624 19.5446 79.3706 19.9163C78.973 20.2911 78.5076 20.587 77.9992 20.7881C77.4757 20.9963 76.917 21.1023 76.3535 21.1007L76.3546 21.0996ZM63.7358 20.7881H76.3535C76.8771 20.7894 77.3962 20.6906 77.8826 20.4972C78.3545 20.3114 78.7866 20.0374 79.1557 19.6899C79.5195 19.3449 79.8158 18.9352 80.0292 18.4818C80.2462 18.0192 80.3569 17.514 80.3532 17.0032C80.3542 16.5044 80.2435 16.0118 80.0292 15.5612C79.8138 15.1056 79.5174 14.6926 79.1546 14.3423L79.0304 14.2216L79.1632 14.1138C79.5274 13.8134 79.8261 13.4419 80.0411 13.0221C80.2518 12.6025 80.3595 12.1389 80.3553 11.6696C80.3477 11.1745 80.2242 10.6881 79.9947 10.2491C79.8268 9.91647 79.6082 9.61181 79.3468 9.34599C79.0875 9.08118 78.7911 8.85538 78.4667 8.67565C78.137 8.49353 77.7844 8.35616 77.4182 8.26719C77.0505 8.17608 76.673 8.12975 76.2941 8.12924H63.7369L63.7358 20.7881ZM76.3913 18.8752H65.6536V15.1333H76.3913C76.6612 15.1328 76.9286 15.1848 77.1785 15.2864C77.4172 15.3823 77.6367 15.5203 77.8264 15.6938C78.009 15.8626 78.1584 16.064 78.267 16.2876C78.3783 16.5174 78.4356 16.7695 78.4343 17.0247C78.4395 17.2626 78.3893 17.4983 78.2875 17.7134C78.1311 18.0746 77.8597 18.3742 77.5154 18.5659C77.1747 18.7697 76.7853 18.8781 76.3881 18.8795L76.3913 18.8752ZM65.9624 18.567H76.3881C76.7305 18.5659 77.0663 18.4724 77.3599 18.2965C77.6484 18.138 77.8762 17.8886 78.0078 17.5873V17.5787C78.0884 17.4057 78.128 17.2165 78.1234 17.0258C78.1245 16.818 78.0779 16.6127 77.9873 16.4255C77.8962 16.2366 77.7702 16.0666 77.6158 15.9244C77.4525 15.7762 77.2638 15.6587 77.0587 15.5774C76.8464 15.4911 76.6194 15.4468 76.3902 15.447H65.9667L65.9624 18.567ZM76.3686 13.3163H65.6536V10.1327H76.2974C76.5549 10.1331 76.8112 10.1694 77.0587 10.2405C77.3018 10.3094 77.533 10.4148 77.7443 10.553C77.9478 10.6875 78.1189 10.8653 78.2454 11.0736C78.3731 11.2857 78.44 11.5288 78.4387 11.7762C78.4421 12.0196 78.3741 12.2586 78.2432 12.4638C78.117 12.6589 77.9488 12.8235 77.7508 12.9456C77.5465 13.0703 77.3239 13.1623 77.091 13.2182C76.8563 13.2773 76.6151 13.3073 76.373 13.3077L76.3686 13.3163ZM65.9667 12.9952H76.373C76.5914 12.995 76.809 12.9683 77.0209 12.9154C77.2215 12.8668 77.4135 12.7875 77.5899 12.6805C77.7486 12.5826 77.8836 12.4508 77.9851 12.2946C78.0836 12.1395 78.134 11.9588 78.1298 11.7752C78.1309 11.5854 78.0797 11.399 77.9819 11.2363C77.8799 11.0669 77.7412 10.9226 77.5759 10.8138C77.3912 10.6931 77.1891 10.6011 76.9766 10.5412C76.7572 10.4776 76.5301 10.445 76.3017 10.4442H65.9667V12.9952Z" fill="black"/>
<path d="M76.3535 21.0457H63.4788V7.87275H76.2974C76.6977 7.87307 77.0965 7.92156 77.4852 8.01716C77.8731 8.111 78.2468 8.25597 78.5963 8.44825C78.9421 8.64038 79.2581 8.88141 79.5347 9.16386C79.8138 9.4494 80.0466 9.77665 80.2247 10.1338C80.4731 10.6082 80.6063 11.1343 80.6135 11.6696C80.6185 12.1797 80.5016 12.6836 80.2722 13.1396C80.0588 13.5538 79.7691 13.9242 79.4181 14.2313C79.7675 14.5858 80.0548 14.9964 80.2679 15.4459C80.4985 15.9312 80.6176 16.4618 80.6167 16.9989C80.6204 17.5481 80.5012 18.0911 80.2679 18.5885C80.04 19.0703 79.7248 19.5058 79.3382 19.8732C78.9455 20.2435 78.486 20.5361 77.9841 20.7353C77.4666 20.9404 76.9147 21.0451 76.3579 21.0436L76.3535 21.0457ZM63.6872 20.8399H76.3579C76.8886 20.8412 77.4146 20.741 77.9074 20.5446C78.3855 20.3564 78.8231 20.0788 79.1967 19.7266C79.5654 19.3768 79.8656 18.9616 80.0822 18.5023C80.3028 18.0323 80.4153 17.519 80.4115 17C80.4125 16.493 80.3 15.9922 80.0822 15.5343C79.8636 15.073 79.5632 14.6549 79.1956 14.3003L79.1147 14.2216L79.2021 14.1494C79.5716 13.8441 79.8747 13.4667 80.093 13.0404C80.3092 12.6136 80.4202 12.1414 80.4169 11.6631C80.4094 11.1595 80.284 10.6646 80.0509 10.2179C79.8817 9.88012 79.661 9.57071 79.3965 9.30073C79.1336 9.03231 78.8332 8.80326 78.5046 8.62068C78.1708 8.43617 77.8138 8.29699 77.4431 8.20684C77.0707 8.11491 76.6886 8.06823 76.305 8.06781H63.6829L63.6872 20.8399ZM76.3946 18.8202H65.7043V15.1851H76.3946C76.657 15.1846 76.9171 15.2351 77.1602 15.3338C77.3944 15.4266 77.6099 15.5609 77.7962 15.7304C77.9751 15.8943 78.1216 16.0903 78.2281 16.3081C78.336 16.5304 78.3914 16.7745 78.3901 17.0215C78.3945 17.2512 78.3457 17.4787 78.2476 17.6865C78.0956 18.0373 77.8323 18.3285 77.4982 18.5152C77.1656 18.714 76.7855 18.8197 76.3978 18.8213L76.3946 18.8202ZM65.9235 18.6176H76.3946C76.7459 18.6165 77.0903 18.5204 77.3913 18.3396C77.6886 18.1747 77.9229 17.9163 78.0575 17.6046V17.5992C78.1428 17.4188 78.1846 17.2209 78.1795 17.0215C78.1803 16.8052 78.132 16.5914 78.0381 16.3964C77.9435 16.2018 77.8131 16.0267 77.6537 15.8802C77.4858 15.7272 77.2916 15.606 77.0803 15.5224C76.8615 15.4337 76.6275 15.3883 76.3913 15.3888H65.9171L65.9235 18.6176ZM76.373 13.2613H65.7043V10.1866H76.2931C76.5456 10.1874 76.7968 10.2236 77.0392 10.2944C77.2771 10.3612 77.5032 10.4641 77.7098 10.5994C77.9073 10.729 78.0731 10.9014 78.1946 11.1038C78.3175 11.3073 78.3817 11.5408 78.3804 11.7784C78.3834 12.0113 78.3185 12.2401 78.1936 12.4369C78.0712 12.6256 77.9081 12.7847 77.7163 12.9025C77.5158 13.0248 77.2971 13.1146 77.0684 13.1687C76.8382 13.2265 76.6018 13.2562 76.3643 13.257L76.373 13.2613ZM65.903 13.0533H76.3643C76.585 13.0528 76.8048 13.0253 77.0187 12.9714C77.2253 12.9216 77.4228 12.8398 77.604 12.729C77.77 12.6276 77.911 12.4902 78.0165 12.327C78.1205 12.1631 78.1742 11.9724 78.1709 11.7784C78.1724 11.5776 78.1182 11.3803 78.0143 11.2083C77.9083 11.032 77.764 10.8818 77.5921 10.7686C77.4026 10.6453 77.1955 10.5515 76.9777 10.4905C76.7539 10.425 76.522 10.3913 76.2888 10.3903H65.9117L65.903 13.0533Z" fill="black"/>
<path d="M76.3536 21.2009H63.3223V7.71001H76.292C76.7044 7.71038 77.1152 7.76069 77.5155 7.85981C77.9177 7.95835 78.3051 8.10946 78.6676 8.30922C79.0255 8.50953 79.3528 8.75995 79.6395 9.05285C79.9297 9.34998 80.1719 9.69028 80.3576 10.0616C80.6164 10.5575 80.7551 11.1072 80.7625 11.6663C80.7674 12.2012 80.6445 12.7295 80.404 13.2075C80.2071 13.5943 79.9456 13.9449 79.6308 14.2442C79.9427 14.5839 80.2019 14.9682 80.3997 15.3845C80.6395 15.8897 80.7638 16.4419 80.7636 17.001C80.7672 17.5733 80.6429 18.1392 80.3997 18.6575C80.163 19.1569 79.8362 19.6085 79.4354 19.9896C79.0283 20.3728 78.5519 20.6753 78.0316 20.8808C77.496 21.095 76.9241 21.2048 76.3471 21.2041L76.3536 21.2009ZM63.8319 20.6879H76.3471C76.8577 20.6892 77.3639 20.593 77.8383 20.4045C78.2983 20.2234 78.7194 19.9563 79.079 19.6177C79.4336 19.2813 79.7222 18.8819 79.9299 18.4398C80.1411 17.9908 80.2488 17.5003 80.2453 17.0043C80.2461 16.5196 80.1384 16.0409 79.9299 15.6032C79.7191 15.16 79.4297 14.7584 79.0758 14.4177L78.8696 14.2184L79.0855 14.0351C79.4388 13.7436 79.7287 13.3831 79.9375 12.9758C80.1412 12.5702 80.2452 12.1221 80.2409 11.6685C80.2327 11.1891 80.1126 10.7182 79.89 10.2933C79.7282 9.97042 79.5173 9.67449 79.2648 9.41604C79.0123 9.15837 78.7239 8.9384 78.4085 8.76294C78.087 8.5851 77.743 8.45099 77.3859 8.36419C77.0259 8.27489 76.6564 8.22965 76.2855 8.22947H63.8384L63.8319 20.6879ZM76.3914 18.9787H65.551V15.0277H76.3914C76.6739 15.0271 76.9538 15.0816 77.2153 15.1883C77.4676 15.2891 77.6993 15.4352 77.8988 15.6194C78.0906 15.7965 78.2477 16.0078 78.362 16.2423C78.4803 16.4862 78.5412 16.7538 78.5402 17.0247C78.5449 17.2783 78.4906 17.5296 78.3815 17.7587C78.2165 18.1371 77.9316 18.451 77.5705 18.6521C77.2137 18.8635 76.8064 18.9752 76.3914 18.9754V18.9787ZM66.0683 18.4592H76.3914C76.7149 18.4578 77.032 18.3691 77.3092 18.2027C77.5768 18.0545 77.7879 17.8223 77.9096 17.542C77.9863 17.3791 78.0234 17.2004 78.0176 17.0204C78.0185 16.8277 77.9757 16.6372 77.8923 16.4633C77.8065 16.2862 77.6882 16.1268 77.5435 15.9934C77.3893 15.8548 77.2111 15.7452 77.0177 15.6701C76.8175 15.5885 76.6033 15.5467 76.387 15.5472H66.0639L66.0683 18.4592ZM76.373 13.4112H65.551V10.0336H76.292C76.5592 10.0347 76.8249 10.0732 77.0814 10.1478C77.3344 10.2187 77.5751 10.3277 77.7951 10.4711C78.0118 10.6134 78.1937 10.8023 78.3275 11.024C78.4642 11.2519 78.5359 11.5128 78.5348 11.7784C78.5366 12.0416 78.4616 12.2996 78.3189 12.521C78.1844 12.7298 78.0047 12.9058 77.793 13.0361C77.5799 13.1659 77.3478 13.2619 77.1051 13.3206C76.8625 13.3813 76.6134 13.4124 76.3633 13.4133L76.373 13.4112ZM66.0585 12.8982H76.3633C76.5712 12.8975 76.7783 12.8715 76.9799 12.8206C77.1703 12.7746 77.3525 12.6993 77.5198 12.5975C77.6661 12.5083 77.7902 12.387 77.8826 12.2429C77.9706 12.1041 78.0161 11.9426 78.0133 11.7784C78.0145 11.6065 77.9682 11.4375 77.8794 11.2902C77.7851 11.1336 77.6567 11.0002 77.5036 10.9001C77.3277 10.785 77.135 10.6977 76.9324 10.6414C76.722 10.5792 76.5038 10.5473 76.2845 10.5466H66.0683L66.0585 12.8982Z" fill="black"/>
<path d="M88.9529 8.09152H86.7415V20.8216H88.9529V8.09152Z" fill="black"/>
<path d="M89.1116 20.9767H86.5848V7.93094H89.1116V20.9767ZM86.9001 20.6642H88.7985V8.24779H86.898L86.9001 20.6642Z" fill="black"/>
<path d="M89.157 21.0263H86.5374V7.88891H89.157V21.0263ZM86.9455 20.6189H88.7488V8.29629H86.9455V20.6189Z" fill="black"/>
<path d="M89.3125 21.1804H86.3808V7.73156H89.3125V21.1804ZM86.6939 20.8679H89.0004V8.04303H86.6939V20.8679ZM88.9054 20.7731H86.79V8.13894H88.9054V20.7731ZM87.1021 20.4605H88.5912V8.45148H87.1L87.1021 20.4605Z" fill="black"/>
<path d="M97.4759 8.09152H95.2645V20.8216H97.4759V8.09152Z" fill="black"/>
<path d="M97.6315 20.9767H95.1079V7.93094H97.6315V20.9767ZM95.42 20.6642H97.3183V8.24779H95.42V20.6642Z" fill="black"/>
<path d="M97.68 21.0263H95.0571V7.88891H97.6768L97.68 21.0263ZM95.4696 20.6189H97.2729V8.29629H95.4696V20.6189Z" fill="black"/>
<path d="M97.8366 21.1804H94.9049V7.73156H97.8366V21.1804ZM95.218 20.8679H97.5246V8.04303H95.218V20.8679ZM97.4284 20.7731H95.312V8.13894H97.4284V20.7731ZM95.6251 20.4605H97.1153V8.45148H95.6251V20.4605Z" fill="black"/>
<path d="M119.639 10.3353C119.648 11.1913 119.447 12.0364 119.053 12.7968C118.669 13.5371 118.119 14.1791 117.446 14.6732C118.103 15.1784 118.645 15.8182 119.034 16.5495C119.44 17.3061 119.648 18.1527 119.639 19.011V20.8216H117.409V19.011C117.413 18.5768 117.326 18.1466 117.154 17.7479C116.989 17.3663 116.752 17.0203 116.455 16.7295C116.155 16.4374 115.802 16.2038 115.416 16.0408C115.019 15.8711 114.591 15.7845 114.159 15.7864H105.619V20.8216H103.407V8.09045H105.619V13.5405H114.162C114.594 13.5421 115.022 13.4556 115.419 13.2861C115.805 13.1226 116.158 12.8891 116.458 12.5975C116.755 12.3067 116.993 11.9607 117.157 11.579C117.328 11.1864 117.415 10.7624 117.413 10.3343V8.09045H119.643L119.639 10.3353Z" fill="black"/>
<path d="M119.796 20.9767H117.254V19.011C117.257 18.598 117.174 18.1888 117.011 17.8093C116.854 17.4462 116.628 17.1168 116.346 16.8394C116.059 16.5616 115.723 16.3391 115.355 16.183C114.977 16.022 114.571 15.9399 114.16 15.9416H105.775V20.9767H103.251V7.93094H105.774V13.381H114.159C114.57 13.3826 114.977 13.3004 115.355 13.1396C115.723 12.9834 116.059 12.7609 116.346 12.4832C116.629 12.2062 116.855 11.8767 117.011 11.5133C117.174 11.1393 117.257 10.7355 117.254 10.3278V7.93094H119.796V10.3321C119.804 11.2129 119.597 12.0824 119.193 12.8658C118.828 13.5658 118.32 14.1812 117.701 14.6721C118.304 15.1706 118.804 15.782 119.172 16.4719C119.589 17.2514 119.804 18.1229 119.796 19.0067V20.9767ZM117.567 20.6642H119.484V19.011C119.491 18.1789 119.29 17.3581 118.898 16.6238C118.518 15.9127 117.992 15.2901 117.353 14.7971L117.189 14.671L117.356 14.5481C118.008 14.0676 118.542 13.4442 118.916 12.7257C119.296 11.987 119.491 11.167 119.484 10.3364V8.24779H117.567V10.3364C117.569 10.7857 117.477 11.2304 117.298 11.6426C117.125 12.0423 116.876 12.4049 116.565 12.7106C116.25 13.0154 115.881 13.2594 115.478 13.4305C115.061 13.6083 114.612 13.6992 114.159 13.6978H105.462V8.24779H103.564V20.6653H105.462V15.6302H114.159C114.612 15.6285 115.061 15.7195 115.478 15.8974C115.881 16.0682 116.25 16.3123 116.564 16.6174C116.875 16.9226 117.124 17.2849 117.297 17.6843C117.478 18.1033 117.569 18.555 117.566 19.011L117.567 20.6642Z" fill="black"/>
<path d="M119.843 21.0252H117.205V19.011C117.21 18.6035 117.128 18.1997 116.967 17.8255C116.812 17.4681 116.59 17.1438 116.312 16.8706C116.029 16.5969 115.698 16.3777 115.335 16.224C114.964 16.0653 114.563 15.9842 114.159 15.9858H105.823V21.0209H103.203V7.88783H105.823V13.3379H114.159C114.563 13.3392 114.964 13.2582 115.335 13.0997C115.698 12.9463 116.03 12.727 116.312 12.4531C116.591 12.1803 116.813 11.8559 116.967 11.4982C117.127 11.1314 117.208 10.7353 117.205 10.3353V7.88783H119.843V10.3364C119.851 11.2249 119.642 12.1019 119.234 12.8917C118.877 13.5802 118.38 14.1878 117.777 14.6764C118.364 15.1726 118.852 15.7757 119.214 16.4536C119.635 17.2402 119.851 18.1194 119.843 19.011V21.0252ZM117.614 20.6179H119.435V19.011C119.443 18.1868 119.244 17.3739 118.855 16.6465C118.479 15.9409 117.957 15.3233 117.323 14.8348L117.107 14.6699L117.323 14.5104C117.97 14.0336 118.499 13.4154 118.869 12.7031C119.247 11.9701 119.44 11.1563 119.432 10.3321V8.29521H117.61V10.3364C117.613 10.7923 117.52 11.2437 117.338 11.662C117.162 12.0658 116.91 12.4318 116.594 12.7397C116.275 13.049 115.902 13.2968 115.493 13.4704C115.07 13.6504 114.615 13.7425 114.155 13.7409H105.408V8.29521H103.605V20.6179H105.408V15.5828H114.155C114.615 15.5812 115.07 15.6736 115.493 15.8543C115.902 16.0274 116.276 16.2748 116.594 16.584C116.909 16.8922 117.162 17.2581 117.338 17.6617C117.521 18.0864 117.614 18.5444 117.61 19.0067L117.614 20.6179Z" fill="black"/>
<path d="M120 21.1804H117.049V19.011C117.052 18.6261 116.976 18.2448 116.823 17.8912C116.677 17.5523 116.467 17.2448 116.203 16.9859C115.934 16.7255 115.619 16.5172 115.274 16.3716C114.921 16.2215 114.542 16.1448 114.159 16.1464H105.98V21.1804H103.048V7.73156H105.98V13.1816H114.159C114.542 13.1832 114.921 13.1065 115.274 12.9564C115.619 12.8108 115.934 12.6025 116.203 12.3421C116.467 12.0837 116.677 11.7765 116.823 11.4378C116.974 11.0903 117.051 10.7152 117.049 10.3364V7.73156H120V10.3364C120.008 11.25 119.793 12.1519 119.374 12.9639C119.035 13.6164 118.575 14.1987 118.019 14.6796C118.559 15.1653 119.01 15.7412 119.352 16.3813C119.785 17.1906 120.008 18.0956 120 19.0131V21.1804ZM117.362 20.8679H119.687V19.011C119.694 18.1468 119.484 17.2946 119.076 16.5322C118.722 15.8713 118.246 15.2836 117.672 14.8003L117.527 14.6775L117.674 14.5589C118.261 14.0838 118.744 13.4931 119.092 12.8238C119.487 12.0575 119.69 11.2069 119.683 10.345V8.0441H117.358V10.3364C117.36 10.7579 117.275 11.1753 117.106 11.5618C116.944 11.9377 116.711 12.2785 116.418 12.5651C116.122 12.8525 115.774 13.0824 115.393 13.243C115.002 13.4101 114.581 13.4955 114.156 13.4941H105.663V8.0441H103.357V20.869H105.663V15.8393H114.156C114.581 15.8374 115.002 15.9225 115.393 16.0893C115.774 16.2502 116.122 16.48 116.418 16.7672C116.711 17.0544 116.945 17.3955 117.107 17.7716C117.276 18.1647 117.362 18.5886 117.358 19.0164L117.362 20.8679ZM119.592 20.7731H117.457V19.011C117.461 18.5699 117.373 18.1329 117.199 17.7274C117.031 17.3408 116.79 16.9903 116.489 16.695C116.185 16.3993 115.828 16.1628 115.437 15.9977C115.033 15.825 114.599 15.7367 114.16 15.7379H105.569V20.7741H103.453V8.13894H105.569V13.589H114.157C114.596 13.5904 115.03 13.5028 115.433 13.3314C115.825 13.1658 116.182 12.929 116.486 12.633C116.788 12.3378 117.029 11.9867 117.196 11.5995C117.369 11.201 117.457 10.7708 117.455 10.3364V8.13894H119.59V10.3364C119.598 11.1843 119.399 12.0213 119.01 12.7753C118.629 13.5088 118.084 14.1455 117.418 14.6365L117.366 14.6732L117.416 14.712C118.067 15.214 118.604 15.8484 118.99 16.5732C119.39 17.3237 119.596 18.162 119.589 19.0121L119.592 20.7731ZM117.77 20.4605H119.282V19.011C119.289 18.2124 119.096 17.4248 118.72 16.7198C118.355 16.0338 117.847 15.4335 117.231 14.9588L116.852 14.6678L117.237 14.3843C117.864 13.9212 118.377 13.3215 118.737 12.6309C119.1 11.921 119.285 11.1336 119.277 10.3364V8.45148H117.765V10.3364C117.767 10.8138 117.67 11.2865 117.48 11.7245C117.296 12.1484 117.032 12.5327 116.702 12.8561C116.37 13.1792 115.98 13.4376 115.552 13.6181C115.109 13.8074 114.631 13.9039 114.148 13.9015H105.247V8.45148H103.757V20.4616H105.247V15.4265H114.148C114.631 15.4243 115.109 15.5211 115.552 15.711C115.979 15.8915 116.369 16.1495 116.701 16.4719C117.031 16.7956 117.295 17.1798 117.479 17.6035C117.67 18.0479 117.767 18.5272 117.764 19.011L117.77 20.4605Z" fill="black"/>
<path d="M18.8206 16.1852C18.9188 16.0979 19.0193 16.0138 19.1143 15.9201L19.2223 15.8123C18.136 16.9149 16.6658 17.5572 15.1173 17.6058C13.5688 17.6544 12.0611 17.1054 10.9076 16.0731C10.3238 15.5315 9.85522 14.8781 9.52975 14.152C9.20429 13.4258 9.02861 12.6416 9.01319 11.8463C8.99778 11.0509 9.14293 10.2605 9.44002 9.52235C9.7371 8.78414 10.18 8.11318 10.7424 7.54943L13.9657 4.32812C14.4421 3.85236 14.7096 3.2072 14.7094 2.53457C14.7092 1.86195 14.4413 1.21695 13.9646 0.741472C13.4879 0.265995 12.8415 -0.00101191 12.1676 -0.000809793C11.4936 -0.000607681 10.8474 0.266787 10.371 0.742549L7.29454 3.81513C5.52482 5.58556 4.39672 7.89411 4.08852 10.376C3.78032 12.8578 4.30962 15.3714 5.59274 17.5194C7.64267 18.7641 10.0435 19.3073 12.4309 19.0665C14.8182 18.8257 17.0616 17.8141 18.8206 16.1852Z" fill="#007884"/>
<path d="M26.6374 14.8801C26.5494 14.4286 26.34 14.0095 26.0316 13.6677C25.7232 13.3259 25.3274 13.0743 24.8867 12.9399C24.446 12.8054 23.9769 12.7932 23.5297 12.9045C23.0826 13.0158 22.6742 13.2465 22.3483 13.5717L19.2168 16.6971L19.1089 16.8049C19.0138 16.8997 18.9134 16.9838 18.8151 17.07C17.0552 18.6958 14.8121 19.7045 12.426 19.9431C10.0399 20.1818 7.64085 19.6373 5.59271 18.3924C5.64238 18.4721 5.68666 18.5551 5.73741 18.6349C5.83351 18.7793 5.93502 18.9226 6.0376 19.0659C6.15314 19.2276 6.27084 19.3893 6.39718 19.5445C6.55591 19.7384 6.72653 19.926 6.90146 20.1113C7.00944 20.2191 7.10338 20.3377 7.21353 20.4454C7.35282 20.5812 7.4986 20.7052 7.64546 20.8313C7.79231 20.9573 7.91109 21.0737 8.04931 21.1837C8.18753 21.2936 8.3549 21.41 8.50931 21.521C8.66373 21.632 8.79115 21.7311 8.94124 21.8249C9.09134 21.9187 9.26519 22.0178 9.42824 22.1127C9.5913 22.2075 9.72412 22.2894 9.87529 22.367C10.0265 22.4446 10.2144 22.5254 10.3839 22.6019C10.5534 22.6785 10.6916 22.7485 10.8493 22.811C11.0069 22.8735 11.1981 22.9339 11.3741 22.9932C11.5501 23.0524 11.6916 23.1074 11.8535 23.1548C12.0317 23.2065 12.212 23.2432 12.3934 23.2863C12.5565 23.324 12.7174 23.3693 12.8826 23.3941C13.0651 23.4286 13.2497 23.448 13.4322 23.4738C13.5964 23.4954 13.7562 23.5245 13.9246 23.5396C14.1104 23.5568 14.2972 23.559 14.484 23.5665C14.6481 23.573 14.8079 23.587 14.9764 23.5859C15.1643 23.5859 15.3511 23.5687 15.539 23.559C15.7009 23.5503 15.8629 23.5482 16.026 23.532C16.2139 23.5137 16.4007 23.4792 16.5875 23.4512C16.7473 23.4264 16.9114 23.4102 17.068 23.379C17.2559 23.3423 17.4405 23.2895 17.6263 23.2432C17.7818 23.2033 17.9394 23.1731 18.0938 23.1268C18.2817 23.0708 18.4653 22.9996 18.6499 22.9328C18.7979 22.88 18.949 22.8347 19.0959 22.7744C19.2838 22.6979 19.4674 22.6052 19.652 22.5179C19.7902 22.4521 19.9306 22.395 20.0667 22.3239C20.2578 22.2237 20.4414 22.1084 20.6271 21.9941C20.7502 21.9187 20.8776 21.854 20.9985 21.7786C21.2016 21.6449 21.3948 21.493 21.5903 21.3475C21.6875 21.2742 21.789 21.2095 21.8829 21.1319C22.1725 20.8964 22.45 20.6464 22.7144 20.3829L25.9474 17.1562C26.3056 16.7994 26.5486 16.3437 26.6449 15.8479C26.7071 15.5275 26.7071 15.1983 26.6449 14.8779" fill="black"/>
<path d="M33.8701 8.48166C31.8201 7.23695 29.4193 6.69377 27.0319 6.93456C24.6446 7.17536 22.4012 8.18699 20.6422 9.81588C20.5429 9.90209 20.4425 9.98723 20.3485 10.081L20.2405 10.1888C21.3268 9.08619 22.797 8.44385 24.3455 8.39528C25.894 8.3467 27.4017 8.89564 28.5552 9.92796C29.1397 10.4692 29.609 11.1224 29.9348 11.8487C30.2607 12.575 30.4366 13.3594 30.4519 14.155C30.4672 14.9506 30.3217 15.7412 30.024 16.4794C29.7263 17.2177 29.2826 17.8884 28.7193 18.4516L25.4971 21.673C25.0207 22.1484 24.7531 22.7933 24.7531 23.4657C24.7531 24.1382 25.0207 24.7831 25.4971 25.2585C25.9735 25.734 26.6197 26.0011 27.2934 26.0011C27.9671 26.0011 28.6133 25.734 29.0897 25.2585L32.1693 22.1859C33.9389 20.4154 35.0668 18.1068 35.3748 15.6249C35.6828 13.1431 35.1533 10.6296 33.8701 8.48166Z" fill="#007884"/>
<path d="M33.7243 7.35652C33.6282 7.21103 33.5267 7.06877 33.4241 6.92543C33.3085 6.76377 33.1908 6.60211 33.0656 6.448C32.9068 6.25401 32.7352 6.06649 32.5602 5.88112C32.4522 5.77335 32.3583 5.6548 32.2492 5.54703C32.1099 5.41123 31.9642 5.2873 31.8173 5.16012C31.6705 5.03295 31.5517 4.91872 31.4135 4.80771C31.2752 4.6967 31.1068 4.58031 30.9524 4.46931C30.798 4.3583 30.6705 4.26023 30.5204 4.16539C30.3703 4.07055 30.1965 3.97248 30.0334 3.87872C29.8704 3.78495 29.7376 3.70089 29.5842 3.62222C29.4309 3.54354 29.2473 3.46379 29.0767 3.38835C28.9061 3.31291 28.769 3.24178 28.6113 3.17927C28.4375 3.1103 28.2593 3.05534 28.0833 2.99498C27.9245 2.9411 27.768 2.88721 27.6082 2.83548C27.4289 2.78375 27.2464 2.74603 27.0682 2.704C26.9063 2.66628 26.7443 2.62209 26.5834 2.59623C26.3998 2.56174 26.2152 2.54234 26.0305 2.51648C25.8675 2.49384 25.7066 2.46475 25.5403 2.45074C25.3535 2.43349 25.1656 2.43241 24.9788 2.42487C24.8157 2.4184 24.6548 2.40439 24.4896 2.40547C24.2996 2.40547 24.1106 2.42272 23.9216 2.43241C23.7618 2.44211 23.5977 2.44319 23.44 2.45936C23.25 2.47768 23.061 2.51217 22.871 2.54126C22.7133 2.56497 22.5546 2.58114 22.398 2.61239C22.208 2.64904 22.0212 2.70184 21.8333 2.74926C21.6799 2.78806 21.5244 2.81932 21.3722 2.86458C21.1821 2.9217 20.9964 2.99391 20.8085 3.06073C20.6617 3.11353 20.5137 3.15772 20.369 3.21592C20.179 3.29351 19.9943 3.38727 19.8086 3.47565C19.6725 3.54031 19.5322 3.59635 19.3972 3.66748C19.2039 3.76879 19.0182 3.88303 18.8292 4.00157C18.7083 4.07486 18.583 4.13952 18.4653 4.21712C18.259 4.35291 18.0625 4.50595 17.8649 4.65791C17.771 4.72904 17.6716 4.79262 17.5798 4.86698C17.2901 5.10431 17.0126 5.3561 16.7484 5.62139L13.5229 8.83946C13.2825 9.07381 13.0911 9.35344 12.9598 9.66215C12.8285 9.97086 12.7598 10.3025 12.7579 10.6379C12.7559 10.9733 12.8206 11.3057 12.9483 11.6159C13.076 11.9262 13.2641 12.208 13.5017 12.4452C13.7393 12.6823 14.0217 12.8701 14.3325 12.9975C14.6434 13.1249 14.9765 13.1895 15.3125 13.1876C15.6485 13.1856 15.9808 13.1171 16.2901 12.986C16.5995 12.8549 16.8796 12.6639 17.1144 12.424L20.3474 9.19834C20.4425 9.1035 20.5429 9.01944 20.6411 8.93322C22.4 7.30392 24.6436 6.29194 27.0312 6.05094C29.4187 5.80995 31.8199 6.3531 33.8701 7.59793C33.8204 7.5171 33.7761 7.43519 33.7254 7.35544" fill="black"/>
</g>
<defs>
<filter id="filter0_d_104_6462" x="0" y="0" width="124" height="34" filterUnits="userSpaceOnUse" color-interpolation-filters="sRGB">
<feFlood flood-opacity="0" result="BackgroundImageFix"/>
<feColorMatrix in="SourceAlpha" type="matrix" values="0 0 0 0 0 0 0 0 0 0 0 0 0 0 0 0 0 0 127 0" result="hardAlpha"/>
<feOffset dy="4"/>
<feGaussianBlur stdDeviation="2"/>
<feComposite in2="hardAlpha" operator="out"/>
<feColorMatrix type="matrix" values="0 0 0 0 0 0 0 0 0 0 0 0 0 0 0 0 0 0 0.25 0"/>
<feBlend mode="normal" in2="BackgroundImageFix" result="effect1_dropShadow_104_6462"/>
<feBlend mode="normal" in="SourceGraphic" in2="effect1_dropShadow_104_6462" result="shape"/>
</filter>
<clipPath id="clip0_104_6462">
<rect width="116" height="26" fill="white" transform="translate(4)"/>
</clipPath>
</defs>
</svg>
