<svg width="24" height="24" viewBox="0 0 24 24" fill="currentColor" xmlns="http://www.w3.org/2000/svg">
<path fill-rule="evenodd" clip-rule="evenodd" d="M5.99995 9C5.99995 5.68629 8.68624 3 11.9999 3C13.3108 3 14.5234 3.42034 15.5104 4.13359C15.6655 4.24568 15.7431 4.30173 15.7427 4.3789C15.7423 4.45607 15.6557 4.51727 15.4825 4.63966C14.5856 5.27341 14 6.31832 14 7.5C14 9.433 15.567 11 17.5 11C17.5545 11 17.6087 10.9988 17.6625 10.9963C17.8265 10.9888 17.9085 10.985 17.9542 11.0262C17.9999 11.0673 18.0047 11.1463 18.0143 11.3043C18.0902 12.5585 18.4671 13.7785 19.1159 14.8599L19.6693 15.7823C20.0364 16.3941 20.2199 16.7 20.2325 16.9497C20.252 17.3366 20.0463 17.6999 19.7045 17.8823C19.4838 18 19.1271 18 18.4137 18H5.58624C4.87281 18 4.51609 18 4.29544 17.8823C3.95368 17.6999 3.74798 17.3366 3.76744 16.9497C3.78001 16.7 3.96354 16.3941 4.3306 15.7823L4.88401 14.8599C5.61422 13.6429 5.99995 12.2503 5.99995 10.831V9ZM14.493 19.1498C14.5007 19.0673 14.4328 19 14.35 19H12H9.65C9.56716 19 9.49928 19.0673 9.50702 19.1498C9.55165 19.6254 9.80772 20.0746 10.2322 20.4142C10.7011 20.7893 11.337 21 12 21C12.663 21 13.2989 20.7893 13.7678 20.4142C14.1923 20.0746 14.4484 19.6254 14.493 19.1498Z" />
<circle cx="17.5" cy="7.5" r="2.5" fill="#FF4E3E"/>
</svg>
