<svg width="24" height="24" viewBox="0 0 24 24" fill="currentColor" xmlns="http://www.w3.org/2000/svg">
<path fill-rule="evenodd" clip-rule="evenodd" d="M12 3C8.6863 3 6.00001 5.68629 6.00001 9V10.831C6.00001 12.2503 5.61428 13.6429 4.88407 14.8599L4.33066 15.7823C3.9636 16.3941 3.78007 16.7 3.7675 16.9497C3.74804 17.3366 3.95374 17.6999 4.2955 17.8823C4.51615 18 4.87287 18 5.58631 18H18.4138C19.1272 18 19.4839 18 19.7046 17.8823C20.0463 17.6999 20.252 17.3366 20.2326 16.9497C20.22 16.7 20.0365 16.3941 19.6694 15.7823L19.116 14.8599C18.3857 13.6429 18 12.2503 18 10.831V9C18 5.68629 15.3137 3 12 3ZM14.493 19.1498C14.5007 19.0673 14.4329 19 14.35 19H12H9.65001C9.56717 19 9.49929 19.0673 9.50702 19.1498C9.55166 19.6254 9.80773 20.0746 10.2322 20.4142C10.7011 20.7893 11.337 21 12 21C12.663 21 13.2989 20.7893 13.7678 20.4142C14.1923 20.0746 14.4484 19.6254 14.493 19.1498Z" />
</svg>
