<svg width="24" height="24" viewBox="0 0 24 24" fill="currentColor" xmlns="http://www.w3.org/2000/svg">
<path fill-rule="evenodd" clip-rule="evenodd" d="M9.95253 2.07994C10.3772 2.27655 10.5025 2.74408 10.753 3.67912L12.5935 10.548C12.8375 11.4586 12.9595 11.914 12.7524 12.2727C12.5453 12.6314 12.09 12.7534 11.1793 12.9975L4.31046 14.838C3.37541 15.0885 2.90789 15.2138 2.52528 14.9443C2.14268 14.6748 2.1075 14.2458 2.03715 13.3877C1.97288 12.6037 1.99189 11.8132 2.09506 11.0295C2.28551 9.58287 2.75904 8.18789 3.48861 6.92424C4.21818 5.66059 5.1895 4.55301 6.34711 3.66475C6.97419 3.18358 7.64928 2.77186 8.36039 2.43552C9.1387 2.06739 9.52786 1.88333 9.95253 2.07994ZM14.3011 11.1261L12.292 3.62813C12.5618 3.60349 12.8349 3.5909 13.1111 3.5909C18.0203 3.5909 22 7.5706 22 12.4798C22 17.389 18.0203 21.3687 13.1111 21.3687C9.52905 21.3687 6.44189 19.25 5.03449 16.1973L12.5334 14.188L12.5768 14.1764C12.7626 14.1268 13.0247 14.0569 13.2482 13.9637C13.5298 13.8461 13.949 13.6146 14.2307 13.1267C14.5124 12.6388 14.5033 12.16 14.4643 11.8573C14.4333 11.6172 14.3628 11.3552 14.3128 11.1695L14.3011 11.1261Z" />
</svg>
