<svg width="24" height="24" viewBox="0 0 24 24" fill="currentColor" xmlns="http://www.w3.org/2000/svg">
<path fill-rule="evenodd" clip-rule="evenodd" d="M9.29289 2.29289C9 2.58579 9 3.05719 9 4V5H15V4C15 3.05719 15 2.58579 14.7071 2.29289C14.4142 2 13.9428 2 13 2H11C10.0572 2 9.58579 2 9.29289 2.29289ZM6.58579 6.58579C6 7.17157 6 8.11438 6 10V18C6 19.8856 6 20.8284 6.58579 21.4142C7.17157 22 8.11438 22 10 22H14C15.8856 22 16.8284 22 17.4142 21.4142C18 20.8284 18 19.8856 18 18V10C18 8.11438 18 7.17157 17.4142 6.58579C16.8284 6 15.8856 6 14 6H10C8.11438 6 7.17157 6 6.58579 6.58579ZM12.8143 13.8086V9L8.88 14.6829H11.0657V19.4914L15 13.8086L12.8143 13.8086Z" />
</svg>
