<svg width="24" height="24" viewBox="0 0 24 24" fill="currentColor" xmlns="http://www.w3.org/2000/svg">
<path fill-rule="evenodd" clip-rule="evenodd" d="M9 4C9 3.05719 9 2.58579 9.29289 2.29289C9.58579 2 10.0572 2 11 2H13C13.9428 2 14.4142 2 14.7071 2.29289C15 2.58579 15 3.05719 15 4V5H9V4ZM6 10C6 8.11438 6 7.17157 6.58579 6.58579C7.17157 6 8.11438 6 10 6H14C15.8856 6 16.8284 6 17.4142 6.58579C18 7.17157 18 8.11438 18 10V18C18 19.8856 18 20.8284 17.4142 21.4142C16.8284 22 15.8856 22 14 22H10C8.11438 22 7.17157 22 6.58579 21.4142C6 20.8284 6 19.8856 6 18V10ZM12 12.3182V10.8864C10.345 10.8864 9 12.1702 9 13.75C9 14.232 9.125 14.6902 9.35 15.0864L8.62 15.7832C8.23 15.1961 8 14.4993 8 13.75C8 11.6405 9.79 9.93182 12 9.93182V8.5L14 10.4091L12 12.3182ZM14.65 12.4136L15.38 11.7168C15.77 12.3039 16 13.0007 16 13.75C16 15.8595 14.21 17.5682 12 17.5682V19L10 17.0909L12 15.1818V16.6136C13.655 16.6136 15 15.3298 15 13.75C15 13.268 14.87 12.8145 14.65 12.4136Z" />
</svg>
