<svg width="24" height="24" viewBox="0 0 24 24" fill="currentColor" xmlns="http://www.w3.org/2000/svg">
<path fill-rule="evenodd" clip-rule="evenodd" d="M8.2929 2.29289C8 2.58579 8 3.05719 8 4V5H14V4C14 3.05719 14 2.58579 13.7071 2.29289C13.4142 2 12.9428 2 12 2H10C9.05719 2 8.58579 2 8.2929 2.29289ZM5.58579 6.58579C5 7.17157 5 8.11438 5 10V18C5 19.8856 5 20.8284 5.58579 21.4142C6.17158 22 7.11439 22 9 22H13C14.8856 22 15.8284 22 16.4142 21.4142C16.5368 21.2916 16.6338 21.1534 16.7104 20.9941C12.9787 20.8423 10 17.769 10 14C10 10.231 12.9787 7.15773 16.7104 7.00588C16.6338 6.84663 16.5368 6.70839 16.4142 6.58579C15.8284 6 14.8856 6 13 6H9C7.11439 6 6.17158 6 5.58579 6.58579ZM17 9C14.24 9 12 11.24 12 14C12 16.76 14.24 19 17 19C19.76 19 22 16.76 22 14C22 11.24 19.76 9 17 9ZM17 14.625H19.1C19.3209 14.625 19.5 14.4459 19.5 14.225V13.775C19.5 13.5541 19.3209 13.375 19.1 13.375H17V12.4657C17 12.1093 16.5691 11.9309 16.3172 12.1828L14.7828 13.7172C14.6266 13.8734 14.6266 14.1266 14.7828 14.2828L16.3172 15.8172C16.5691 16.0691 17 15.8907 17 15.5343V14.625Z" />
</svg>
