<svg width="24" height="24" viewBox="0 0 24 24" fill="currentColor" xmlns="http://www.w3.org/2000/svg">
<path fill-rule="evenodd" clip-rule="evenodd" d="M7.29289 2.29289C7 2.58579 7 3.05719 7 4V5H13V4C13 3.05719 13 2.58579 12.7071 2.29289C12.4142 2 11.9428 2 11 2H9C8.05719 2 7.58579 2 7.29289 2.29289ZM4.58579 6.58579C4 7.17157 4 8.11438 4 10V18C4 19.8856 4 20.8284 4.58579 21.4142C5.17157 22 6.11438 22 8 22H12C13.8856 22 14.8284 22 15.4142 21.4142C15.5368 21.2916 15.6338 21.1534 15.7104 20.9941C11.9787 20.8423 9 17.769 9 14C9 10.231 11.9787 7.15773 15.7104 7.00588C15.6338 6.84663 15.5368 6.70839 15.4142 6.58579C14.8284 6 13.8856 6 12 6H8C6.11438 6 5.17157 6 4.58579 6.58579ZM16 19C18.76 19 21 16.76 21 14C21 11.24 18.76 9 16 9C13.24 9 11 11.24 11 14C11 16.76 13.24 19 16 19ZM16 13.375H13.9C13.6791 13.375 13.5 13.5541 13.5 13.775V14.225C13.5 14.4459 13.6791 14.625 13.9 14.625H16V15.5343C16 15.8907 16.4309 16.0691 16.6828 15.8172L18.2172 14.2828C18.3734 14.1266 18.3734 13.8734 18.2172 13.7172L16.6828 12.1828C16.4309 11.9309 16 12.1093 16 12.4657V13.375Z" />
</svg>
