<svg width="24" height="24" viewBox="0 0 24 24" fill="currentColor" xmlns="http://www.w3.org/2000/svg">
<path fill-rule="evenodd" clip-rule="evenodd" d="M12 3C15.64 3 18.67 5.59 19.35 9.04C21.95 9.22 24 11.36 24 14C24 16.76 21.76 19 19 19H6C2.69 19 0 16.31 0 13C0 9.91 2.34 7.36 5.35 7.04C6.6 4.64 9.11 3 12 3ZM8.46977 14.32H9.49315C9.47262 14.6473 9.38021 14.9379 9.21592 15.1917C9.05391 15.4456 8.82687 15.6437 8.5348 15.7862C8.24501 15.9287 7.89589 16 7.48745 16C7.168 16 6.88163 15.9466 6.62835 15.8397C6.37507 15.7306 6.1583 15.5747 5.97804 15.3721C5.80006 15.1694 5.66429 14.9245 5.57074 14.6373C5.47718 14.35 5.4304 14.0283 5.4304 13.672V13.3347C5.4304 12.9784 5.47832 12.6566 5.57416 12.3694C5.67228 12.0799 5.81147 11.8339 5.99173 11.6313C6.17427 11.4286 6.39218 11.2728 6.64546 11.1637C6.89874 11.0546 7.18169 11 7.4943 11C7.90958 11 8.25984 11.0735 8.54506 11.2204C8.83257 11.3674 9.05505 11.57 9.21249 11.8283C9.37222 12.0866 9.46805 12.3805 9.5 12.7101H8.47319C8.46178 12.5141 8.42185 12.3483 8.35339 12.2124C8.28494 12.0744 8.18112 11.9708 8.04193 11.9018C7.90502 11.8305 7.72248 11.7949 7.4943 11.7949C7.32316 11.7949 7.1737 11.8261 7.04592 11.8884C6.91814 11.9508 6.8109 12.0454 6.72419 12.1723C6.63748 12.2993 6.57245 12.4596 6.52909 12.6533C6.48802 12.8448 6.46748 13.0697 6.46748 13.328V13.672C6.46748 13.9236 6.48688 14.1452 6.52567 14.3367C6.56446 14.5259 6.62379 14.6863 6.70365 14.8176C6.7858 14.9468 6.89076 15.0448 7.01854 15.1116C7.1486 15.1761 7.30491 15.2084 7.48745 15.2084C7.70194 15.2084 7.87878 15.175 8.01797 15.1082C8.15716 15.0414 8.26326 14.9423 8.33628 14.811C8.41158 14.6796 8.45607 14.5159 8.46977 14.32ZM10.518 14.163V14.0929C10.518 13.8279 10.5568 13.5841 10.6343 13.3614C10.7119 13.1365 10.8249 12.9417 10.9732 12.7769C11.1215 12.6121 11.3041 12.4841 11.5208 12.3928C11.7376 12.2993 11.9863 12.2525 12.267 12.2525C12.5476 12.2525 12.7975 12.2993 13.0165 12.3928C13.2356 12.4841 13.4193 12.6121 13.5676 12.7769C13.7182 12.9417 13.8323 13.1365 13.9099 13.3614C13.9875 13.5841 14.0262 13.8279 14.0262 14.0929V14.163C14.0262 14.4257 13.9875 14.6696 13.9099 14.8945C13.8323 15.1171 13.7182 15.312 13.5676 15.479C13.4193 15.6437 13.2367 15.7718 13.02 15.8631C12.8032 15.9544 12.5545 16 12.2738 16C11.9932 16 11.7433 15.9544 11.5242 15.8631C11.3075 15.7718 11.1238 15.6437 10.9732 15.479C10.8249 15.312 10.7119 15.1171 10.6343 14.8945C10.5568 14.6696 10.518 14.4257 10.518 14.163ZM11.5037 14.0929V14.163C11.5037 14.3144 11.5174 14.4558 11.5448 14.5872C11.5722 14.7185 11.6155 14.8343 11.6748 14.9345C11.7365 15.0325 11.8163 15.1093 11.9144 15.165C12.0126 15.2207 12.1323 15.2485 12.2738 15.2485C12.4107 15.2485 12.5282 15.2207 12.6264 15.165C12.7245 15.1093 12.8032 15.0325 12.8625 14.9345C12.9218 14.8343 12.9652 14.7185 12.9926 14.5872C13.0222 14.4558 13.0371 14.3144 13.0371 14.163V14.0929C13.0371 13.9459 13.0222 13.8078 12.9926 13.6787C12.9652 13.5473 12.9207 13.4315 12.8591 13.3313C12.7998 13.2289 12.7211 13.1487 12.6229 13.0908C12.5248 13.033 12.4062 13.004 12.267 13.004C12.1278 13.004 12.0091 13.033 11.911 13.0908C11.8152 13.1487 11.7365 13.2289 11.6748 13.3313C11.6155 13.4315 11.5722 13.5473 11.5448 13.6787C11.5174 13.8078 11.5037 13.9459 11.5037 14.0929ZM18.5 15.9332V15.1817H16.3642L17.2302 14.2331C17.3967 14.0684 17.5485 13.9092 17.6854 13.7555C17.8223 13.6019 17.9387 13.4505 18.0345 13.3013C18.1326 13.1499 18.2079 12.9984 18.2604 12.847C18.3129 12.6934 18.3391 12.5364 18.3391 12.3761C18.3391 12.0911 18.2764 11.8461 18.1509 11.6413C18.0277 11.4342 17.8451 11.2761 17.6033 11.167C17.3637 11.0557 17.0693 11 16.7202 11C16.3665 11 16.0608 11.0724 15.8029 11.2171C15.5451 11.3596 15.3454 11.5522 15.2039 11.7949C15.0625 12.0354 14.9917 12.3004 14.9917 12.5898H15.9809C15.9809 12.4295 16.0083 12.2859 16.063 12.159C16.1201 12.0321 16.2022 11.933 16.3095 11.8617C16.419 11.7905 16.5491 11.7548 16.6997 11.7548C16.8411 11.7548 16.9598 11.7838 17.0556 11.8417C17.1537 11.8996 17.2279 11.982 17.2781 12.0888C17.3283 12.1935 17.3534 12.3193 17.3534 12.4663C17.3534 12.5642 17.3317 12.6678 17.2884 12.7769C17.2473 12.8838 17.18 13.0051 17.0864 13.1409C16.9929 13.2745 16.8651 13.4293 16.7031 13.6052L15.091 15.2919V15.9332H18.5Z" />
</svg>
