<svg width="24" height="24" viewBox="0 0 24 24" fill="currentColor" xmlns="http://www.w3.org/2000/svg">
<path fill-rule="evenodd" clip-rule="evenodd" d="M2 12C2 6.48 6.48 2 12 2C17.52 2 22 6.48 22 12C22 17.52 17.52 22 12 22C6.48 22 2 17.52 2 12ZM18.5857 8.46852C18.8444 8.14507 18.792 7.67311 18.4685 7.41435C18.1451 7.15559 17.6731 7.20803 17.4143 7.53148L13.5128 12.4084C13.4039 12.5445 13.1928 12.5303 13.1032 12.3809L12.1831 10.8474C11.5556 9.80162 10.0778 9.70222 9.31592 10.6545L5.41435 15.5315C5.15559 15.8549 5.20803 16.3269 5.53148 16.5857C5.85492 16.8444 6.32689 16.792 6.58565 16.4685L10.4872 11.5916C10.5961 11.4555 10.8072 11.4697 10.8968 11.6191L11.8169 13.1526C12.4444 14.1984 13.9222 14.2978 14.6841 13.3455L18.5857 8.46852Z" />
</svg>
