<svg width="24" height="24" viewBox="0 0 24 24" fill="currentColor" xmlns="http://www.w3.org/2000/svg">
<path fill-rule="evenodd" clip-rule="evenodd" d="M10.4615 18.4444C10.4615 19.4222 11.2923 20.2222 12.3077 20.2222C13.3231 20.2222 14.1538 19.4222 14.1538 18.4444L14.1538 16.6667L16 16.6667L16 18.4444C16 20.4089 14.3477 22 12.3077 22C10.2677 22 8.61538 20.4089 8.61538 18.4444L8.61538 17.1111C8.61538 16.3733 7.99692 15.7778 7.23077 15.7778C6.46462 15.7778 5.84615 16.3733 5.84615 17.1111L5.84615 20.2222C5.84615 20.7111 5.43077 21.1111 4.92308 21.1111C4.41538 21.1111 4 20.7111 4 20.2222L4 17.1111C4 15.3956 5.44923 14 7.23077 14C9.01231 14 10.4615 15.3956 10.4615 17.1111L10.4615 18.4444ZM12.5 13.25L12.5 15.75L17.5 15.75L17.5 13.25C18.875 13.25 20 12.125 20 10.75L20 7L10 7L10 10.75C10 12.125 11.125 13.25 12.5 13.25ZM11.25 3.25C11.25 2.5625 11.8125 2 12.5 2C13.1875 2 13.75 2.5625 13.75 3.25L13.75 5.75L11.25 5.75L11.25 3.25ZM16.25 5.75L16.25 3.25C16.25 2.5625 16.8125 2 17.5 2C18.1875 2 18.75 2.5625 18.75 3.25L18.75 5.75L16.25 5.75Z" />
</svg>
