<svg width="24" height="24" viewBox="0 0 24 24" fill="currentColor" xmlns="http://www.w3.org/2000/svg">
<path fill-rule="evenodd" clip-rule="evenodd" d="M20.7521 18H21.5V17.2517C21.5 17.2505 21.5 17.2492 21.5 17.248V13.25C21.5 12.8358 21.1642 12.5 20.75 12.5C20.3358 12.5 20 12.8358 20 13.25V15.3534L14.6859 9.68509C13.9003 8.84708 12.5341 8.98041 11.9253 9.95449L10.7555 11.8261C10.6723 11.9592 10.4884 11.9836 10.3734 11.8768L4.26034 6.2004C3.95681 5.91855 3.48226 5.93613 3.20041 6.23966C2.91856 6.54319 2.93613 7.01774 3.23966 7.29959L9.35271 12.976C10.158 13.7237 11.4451 13.553 12.0275 12.6211L13.1973 10.7495C13.2842 10.6103 13.4794 10.5913 13.5916 10.711L19.0188 16.5H16.75C16.3358 16.5 16 16.8358 16 17.25C16 17.6642 16.3358 18 16.75 18H20.7482C20.7495 18 20.7508 18 20.7521 18Z" />
</svg>
