<svg width="24" height="24" viewBox="0 0 24 24" fill="currentColor" xmlns="http://www.w3.org/2000/svg">
<path fill-rule="evenodd" clip-rule="evenodd" d="M2 12C2 6.48 6.48 2 12 2C17.52 2 22 6.48 22 12C22 17.52 17.52 22 12 22C6.48 22 2 17.52 2 12ZM13.0894 17.3288V17.9685C13.0894 18.5382 12.6276 19 12.0579 19C11.4883 19 11.0265 18.5382 11.0265 17.9685V17.3113C9.84729 17.0301 8.82811 16.2332 8.56224 14.8582C8.50795 14.5774 8.7397 14.3363 9.02566 14.3363H9.55463C9.81453 14.3363 10.0228 14.5388 10.098 14.7876C10.3071 15.4795 10.8898 15.9725 12.0618 15.9725C13.5762 15.9725 13.9161 15.115 13.9161 14.5813C13.9161 13.855 13.5762 13.1725 11.8532 12.7087C9.93709 12.1838 8.62362 11.2913 8.62362 9.4975C8.62362 7.9925 9.69757 7.0125 11.0265 6.68875V6.03146C11.0265 5.4618 11.4883 5 12.0579 5C12.6276 5 13.0894 5.4618 13.0894 6.03146V6.70625C14.3399 7.04887 15.0463 8.02748 15.2392 9.15786C15.2868 9.43675 15.0567 9.6725 14.7738 9.6725H14.2576C13.9891 9.6725 13.7768 9.45793 13.7174 9.19618C13.5571 8.49038 13.0706 8.03625 12.0618 8.03625C10.9029 8.03625 10.2075 8.63125 10.2075 9.47125C10.2075 10.2062 10.7097 10.6875 12.2704 11.1425C13.8311 11.5975 15.5 12.3588 15.5 14.5638C15.4923 16.165 14.4338 17.04 13.0894 17.3288Z" />
</svg>
