<svg width="24" height="24" viewBox="0 0 24 24" fill="currentColor" xmlns="http://www.w3.org/2000/svg">
<path fill-rule="evenodd" clip-rule="evenodd" d="M12.25 11.0833V1L4 12.9167H8.58333L8.58333 23L10.3137 20.5006C10.11 19.8704 10 19.198 10 18.5C10 15.0128 12.7461 12.167 16.1938 12.0071L16.8333 11.0833L12.25 11.0833ZM16.5 23C18.984 23 21 20.984 21 18.5C21 16.016 18.984 14 16.5 14C14.016 14 12 16.016 12 18.5C12 20.984 14.016 23 16.5 23ZM16.5 17.9375L14.65 17.9375C14.4291 17.9375 14.25 18.1166 14.25 18.3375V18.6625C14.25 18.8834 14.4291 19.0625 14.65 19.0625H16.5V19.7843C16.5 20.1407 16.9309 20.3191 17.1828 20.0672L18.4672 18.7828C18.6234 18.6266 18.6234 18.3734 18.4672 18.2172L17.1828 16.9328C16.9309 16.6809 16.5 16.8593 16.5 17.2157V17.9375Z" />
</svg>
