<svg width="24" height="24" viewBox="0 0 24 24" fill="currentColor" xmlns="http://www.w3.org/2000/svg">
<path fill-rule="evenodd" clip-rule="evenodd" d="M2 6V3H4V5H10V4C10 3.44772 10.4477 3 11 3C11.5523 3 12 3.44772 12 4V5H18V3H20V6C20 6.55228 19.5523 7 19 7H18H12V10.3924C11.3652 11.446 11 12.6803 11 14C11 15.3197 11.3652 16.554 12 17.6076V21C12 21.5523 11.5523 22 11 22C10.4477 22 10 21.5523 10 21V13H5C4.44772 13 4 12.5523 4 12V10H6V11H10V7H3C2.44772 7 2 6.55228 2 6ZM18 9C15.24 9 13 11.24 13 14C13 16.76 15.24 19 18 19C20.76 19 23 16.76 23 14C23 11.24 20.76 9 18 9ZM18 14.625H20.1C20.3209 14.625 20.5 14.4459 20.5 14.225V13.775C20.5 13.5541 20.3209 13.375 20.1 13.375H18V12.4657C18 12.1093 17.5691 11.9309 17.3172 12.1828L15.7828 13.7172C15.6266 13.8734 15.6266 14.1266 15.7828 14.2828L17.3172 15.8172C17.5691 16.0691 18 15.8907 18 15.5343V14.625Z" />
</svg>
