<svg width="24" height="24" viewBox="0 0 24 24" fill="currentColor" xmlns="http://www.w3.org/2000/svg">
<path fill-rule="evenodd" clip-rule="evenodd" d="M2 6V3H4V5H10V4C10 3.44772 10.4477 3 11 3C11.5523 3 12 3.44772 12 4V5H18V3H20V6C20 6.55228 19.5523 7 19 7H17H12V9.10102C10.7628 10.3636 10 12.0927 10 14V13H5C4.44772 13 4 12.5523 4 12V10H6V11H10V7H3C2.44772 7 2 6.55228 2 6ZM10 14C10 15.9073 10.7628 17.6364 12 18.899V21C12 21.5523 11.5523 22 11 22C10.4477 22 10 21.5523 10 21V14ZM17 19C19.76 19 22 16.76 22 14C22 11.24 19.76 9 17 9C14.24 9 12 11.24 12 14C12 16.76 14.24 19 17 19ZM17 13.375H14.9C14.6791 13.375 14.5 13.5541 14.5 13.775V14.225C14.5 14.4459 14.6791 14.625 14.9 14.625H17V15.5343C17 15.8907 17.4309 16.0691 17.6828 15.8172L19.2172 14.2828C19.3734 14.1266 19.3734 13.8734 19.2172 13.7172L17.6828 12.1828C17.4309 11.9309 17 12.1093 17 12.4657V13.375Z" />
</svg>
