<svg width="24" height="24" viewBox="0 0 24 24" fill="currentColor" xmlns="http://www.w3.org/2000/svg">
<path d="M21.6607 9.85641L19.9979 8.41823L19.1365 7.71342L12.6454 2.2369C12.2673 1.92103 11.7013 1.92103 11.3232 2.2369L4.8321 7.71342L3.97064 8.41823L2.30781 9.85641C1.92106 10.2096 1.89546 10.7898 2.24972 11.1725C2.60398 11.5553 3.21243 11.6049 3.63006 11.2851L3.97064 10.9993V19.1427C3.97064 20.7207 5.31607 22 6.97575 22H8.97916V16.2854C8.97916 14.7073 10.3246 13.4281 11.9843 13.4281C13.644 13.4281 14.9894 14.7073 14.9894 16.2854V22H16.9928C18.6525 22 19.9979 20.7207 19.9979 19.1427V10.9993L20.3385 11.2851C20.7536 11.6317 21.3855 11.5934 21.7509 11.1993C22.1155 10.8047 22.0752 10.2038 21.6607 9.85641Z" />
</svg>
