<svg width="24" height="24" viewBox="0 0 24 24" fill="currentColor" xmlns="http://www.w3.org/2000/svg">
<path fill-rule="evenodd" clip-rule="evenodd" d="M18.9888 9.00225C18.9888 5.13501 15.8573 2 11.9944 2C8.1315 2 4.99998 5.13501 4.99998 9.00225C4.86009 12.1233 7.3681 16.2946 11.1851 21.5863C11.373 21.8461 11.674 22 11.9944 22C12.3149 22 12.6159 21.8461 12.8038 21.5863C16.6207 16.3046 19.1287 12.1333 18.9888 9.00225ZM11.9944 12.0032C10.3389 12.0032 8.9968 10.6596 8.9968 9.00225C8.9968 7.34486 10.3389 6.00128 11.9944 6.00128C13.6499 6.00128 14.992 7.34486 14.992 9.00225C14.992 9.79815 14.6762 10.5615 14.114 11.1242C13.5519 11.687 12.7894 12.0032 11.9944 12.0032ZM11.9944 10.0019C12.5463 10.0019 12.9936 9.55421 12.9936 9.00192C12.9936 8.44964 12.5463 8.00192 11.9944 8.00192C11.4426 8.00192 10.9952 8.44964 10.9952 9.00192C10.9952 9.55421 11.4426 10.0019 11.9944 10.0019Z" />
</svg>
