<svg width="24" height="24" viewBox="0 0 24 24" fill="currentColor" xmlns="http://www.w3.org/2000/svg">
<path fill-rule="evenodd" clip-rule="evenodd" d="M4.8 7H19.2C19.6418 7 20 6.55228 20 6C20 5.44772 19.6418 5 19.2 5H4.8C4.35817 5 4 5.44772 4 6C4 6.55228 4.35817 7 4.8 7ZM20 18C20 18.5523 19.6418 19 19.2 19H4.8C4.35817 19 4 18.5523 4 18C4 17.4477 4.35817 17 4.8 17H19.2C19.6418 17 20 17.4477 20 18ZM4.8 11H19.2C19.6418 11 20 11.4477 20 12C20 12.5523 19.6418 13 19.2 13H4.8C4.35817 13 4 12.5523 4 12C4 11.4477 4.35817 11 4.8 11Z" />
<path d="M19.2 6.75H4.8V7.25H19.2V6.75ZM19.75 6C19.75 6.46915 19.4546 6.75 19.2 6.75V7.25C19.8291 7.25 20.25 6.63541 20.25 6H19.75ZM19.2 5.25C19.4546 5.25 19.75 5.53085 19.75 6H20.25C20.25 5.36459 19.8291 4.75 19.2 4.75V5.25ZM4.8 5.25H19.2V4.75H4.8V5.25ZM4.25 6C4.25 5.53085 4.54542 5.25 4.8 5.25V4.75C4.17093 4.75 3.75 5.36459 3.75 6H4.25ZM4.8 6.75C4.54542 6.75 4.25 6.46915 4.25 6H3.75C3.75 6.63541 4.17093 7.25 4.8 7.25V6.75ZM19.2 19.25C19.8291 19.25 20.25 18.6354 20.25 18H19.75C19.75 18.4692 19.4546 18.75 19.2 18.75V19.25ZM4.8 19.25H19.2V18.75H4.8V19.25ZM3.75 18C3.75 18.6354 4.17093 19.25 4.8 19.25V18.75C4.54542 18.75 4.25 18.4692 4.25 18H3.75ZM4.8 16.75C4.17093 16.75 3.75 17.3646 3.75 18H4.25C4.25 17.5308 4.54542 17.25 4.8 17.25V16.75ZM19.2 16.75H4.8V17.25H19.2V16.75ZM20.25 18C20.25 17.3646 19.8291 16.75 19.2 16.75V17.25C19.4546 17.25 19.75 17.5308 19.75 18H20.25ZM19.2 10.75H4.8V11.25H19.2V10.75ZM20.25 12C20.25 11.3646 19.8291 10.75 19.2 10.75V11.25C19.4546 11.25 19.75 11.5308 19.75 12H20.25ZM19.2 13.25C19.8291 13.25 20.25 12.6354 20.25 12H19.75C19.75 12.4692 19.4546 12.75 19.2 12.75V13.25ZM4.8 13.25H19.2V12.75H4.8V13.25ZM3.75 12C3.75 12.6354 4.17093 13.25 4.8 13.25V12.75C4.54542 12.75 4.25 12.4692 4.25 12H3.75ZM4.8 10.75C4.17093 10.75 3.75 11.3646 3.75 12H4.25C4.25 11.5308 4.54542 11.25 4.8 11.25V10.75Z" />
</svg>
