<svg width="24" height="24" viewBox="0 0 24 24" fill="currentColor" xmlns="http://www.w3.org/2000/svg">
<path fill-rule="evenodd" clip-rule="evenodd" d="M12 22C17.5228 22 22 17.5228 22 12C22 6.47715 17.5228 2 12 2C6.47715 2 2 6.47715 2 12C2 17.5228 6.47715 22 12 22ZM13.4667 7.96667C13.4667 8.77668 12.81 9.43333 12 9.43333C11.19 9.43333 10.5333 8.77668 10.5333 7.96667C10.5333 7.15665 11.19 6.5 12 6.5C12.81 6.5 13.4667 7.15665 13.4667 7.96667ZM10.5333 11.6667C10.5333 11.1144 10.9811 10.6667 11.5333 10.6667H12.4667C13.019 10.6667 13.4667 11.1144 13.4667 11.6667V17C13.4667 17.5523 13.019 18 12.4667 18H11.5333C10.9811 18 10.5333 17.5523 10.5333 17V11.6667Z" />
</svg>
