<svg width="24" height="24" viewBox="0 0 24 24" fill="currentColor" xmlns="http://www.w3.org/2000/svg">
<path fill-rule="evenodd" clip-rule="evenodd" d="M12 2C12.5523 2 13 2.44772 13 3V5C13 5.55228 12.5523 6 12 6C11.4477 6 11 5.55228 11 5V3C11 2.44772 11.4477 2 12 2ZM16 12C16 14.2091 14.2091 16 12 16C9.79086 16 8 14.2091 8 12C8 9.79086 9.79086 8 12 8C14.2091 8 16 9.79086 16 12ZM13 19C13 18.4477 12.5523 18 12 18C11.4477 18 11 18.4477 11 19V21C11 21.5523 11.4477 22 12 22C12.5523 22 13 21.5523 13 21V19ZM19.0711 4.92864C19.4616 5.31916 19.4616 5.95232 19.0711 6.34285L17.6569 7.75706C17.2664 8.14759 16.6332 8.14759 16.2427 7.75706C15.8522 7.36654 15.8522 6.73337 16.2427 6.34285L17.6569 4.92864C18.0474 4.53811 18.6806 4.53811 19.0711 4.92864ZM7.7574 17.6573C8.14792 17.2668 8.14792 16.6336 7.7574 16.2431C7.36688 15.8526 6.73371 15.8526 6.34319 16.2431L4.92897 17.6573C4.53845 18.0478 4.53845 18.681 4.92897 19.0715C5.3195 19.462 5.95266 19.462 6.34319 19.0715L7.7574 17.6573ZM22 12C22 12.5523 21.5523 13 21 13H19C18.4477 13 18 12.5523 18 12C18 11.4477 18.4477 11 19 11H21C21.5523 11 22 11.4477 22 12ZM5 13C5.55228 13 6 12.5523 6 12C6 11.4477 5.55228 11 5 11H3C2.44772 11 2 11.4477 2 12C2 12.5523 2.44772 13 3 13H5ZM19.0711 19.0714C18.6806 19.4619 18.0474 19.4619 17.6569 19.0714L16.2427 17.6572C15.8522 17.2666 15.8522 16.6335 16.2427 16.2429C16.6332 15.8524 17.2664 15.8524 17.6569 16.2429L19.0711 17.6572C19.4616 18.0477 19.4616 18.6808 19.0711 19.0714ZM6.34319 7.75691C6.73371 8.14744 7.36688 8.14744 7.7574 7.75691C8.14792 7.36639 8.14792 6.73322 7.7574 6.3427L6.34319 4.92848C5.95266 4.53796 5.3195 4.53796 4.92897 4.92848C4.53845 5.31901 4.53845 5.95217 4.92897 6.3427L6.34319 7.75691Z" />
</svg>
