<svg width="24" height="24" viewBox="0 0 24 24" fill="currentColor" xmlns="http://www.w3.org/2000/svg">
<path fill-rule="evenodd" clip-rule="evenodd" d="M20.7521 6H21.5V6.74829C21.5 6.74953 21.5 6.75077 21.5 6.75201V10.75C21.5 11.1642 21.1642 11.5 20.75 11.5C20.3358 11.5 20 11.1642 20 10.75V8.64659L14.6859 14.3149C13.9003 15.1529 12.5341 15.0196 11.9253 14.0455L10.7555 12.1739C10.6723 12.0408 10.4884 12.0164 10.3734 12.1232L4.26034 17.7996C3.95681 18.0815 3.48226 18.0639 3.20041 17.7603C2.91856 17.4568 2.93613 16.9823 3.23966 16.7004L9.35271 11.024C10.158 10.2763 11.4451 10.447 12.0275 11.3789L13.1973 13.2505C13.2842 13.3897 13.4794 13.4087 13.5916 13.289L19.0188 7.5H16.75C16.3358 7.5 16 7.16422 16 6.75C16 6.33579 16.3358 6 16.75 6H20.7482C20.7495 6 20.7508 6 20.7521 6Z" />
</svg>
