<svg width="600" height="517" viewBox="0 0 600 517" fill="none" xmlns="http://www.w3.org/2000/svg">
<path d="M461.419 458.907C467.785 432.401 494.658 327.84 534.491 273.703C537.333 269.839 542.777 271.85 543.979 277.242C551.595 311.316 564.11 411.444 464.762 462.736C462.914 463.691 460.842 461.313 461.419 458.907Z" fill="#303034"/>
<path d="M464.726 459.995C464.461 459.996 464.202 459.911 463.989 459.753C463.854 459.656 463.74 459.532 463.653 459.39C463.566 459.248 463.507 459.091 463.481 458.926C463.454 458.761 463.46 458.593 463.499 458.431C463.537 458.268 463.607 458.115 463.704 457.98C521.143 377.902 529.328 309.507 529.404 308.826C529.442 308.491 529.61 308.185 529.872 307.976C530.134 307.766 530.468 307.669 530.801 307.707C531.134 307.745 531.438 307.915 531.647 308.178C531.855 308.441 531.951 308.777 531.914 309.112C531.837 309.797 523.576 378.853 465.752 459.467C465.636 459.631 465.481 459.764 465.303 459.856C465.124 459.948 464.927 459.996 464.726 459.995Z" fill="#404040"/>
<path d="M465.841 466.955C465.22 467.028 464.592 466.945 464.011 466.715C463.43 466.485 462.915 466.114 462.51 465.636C462.106 465.158 461.825 464.586 461.693 463.973C461.561 463.36 461.581 462.723 461.752 462.119C465.76 447.703 480.708 407.966 527.825 387.34C567.614 369.922 587.552 356.675 596.175 350.034C596.573 349.728 597.057 349.557 597.557 349.544C598.058 349.531 598.55 349.677 598.963 349.961C599.377 350.246 599.69 350.654 599.86 351.128C600.029 351.602 600.046 352.117 599.907 352.601C592.88 377.104 562.92 455.393 465.841 466.955Z" fill="#404040"/>
<path d="M464.702 464.027C464.46 464.029 464.222 463.96 464.017 463.829C463.813 463.697 463.65 463.51 463.55 463.288C463.449 463.066 463.414 462.82 463.449 462.578C463.484 462.337 463.588 462.111 463.748 461.928C464.177 461.428 507.501 411.414 561.773 384.662C561.922 384.589 562.084 384.546 562.25 384.536C562.415 384.525 562.581 384.548 562.738 384.602C562.895 384.656 563.04 384.741 563.164 384.851C563.288 384.961 563.39 385.095 563.463 385.245C563.536 385.395 563.579 385.557 563.589 385.724C563.599 385.89 563.577 386.057 563.523 386.215C563.469 386.372 563.385 386.518 563.275 386.643C563.166 386.768 563.033 386.87 562.884 386.943C509.073 413.47 466.089 463.113 465.66 463.588C465.542 463.726 465.394 463.837 465.229 463.913C465.064 463.989 464.884 464.028 464.702 464.027Z" fill="#606060"/>
<g clip-path="url(#clip0_233_13316)">
<path d="M296.485 21.9434L295.956 30.282L301.842 27.0478L296.485 21.9434Z" fill="#303034"/>
<path d="M334.359 19.485L310.542 37.8395C310.316 38.013 310.058 38.1394 309.782 38.2112C309.506 38.2829 309.219 38.2985 308.937 38.2571C308.656 38.2156 308.385 38.118 308.142 37.9699C307.899 37.8219 307.689 37.6264 307.524 37.3953L289.99 12.8612C289.893 12.7238 289.838 12.5605 289.834 12.3922C289.83 12.2238 289.877 12.058 289.967 11.9158C290.058 11.7736 290.189 11.6615 290.344 11.5939C290.498 11.5262 290.67 11.506 290.836 11.5358L334.359 19.485Z" fill="#404040"/>
<path d="M296.49 21.9453L334.359 19.4834L299.306 25.9146L299.06 28.2214L296.49 21.9453Z" fill="#303034"/>
<path d="M300.995 28.2531L295.956 30.2826L299.306 25.9141L300.995 28.2531Z" fill="#303034"/>
</g>
<path d="M50.4717 207.546C73.1132 138.049 142.453 10.8487 283.491 20.282" stroke="#404040" stroke-width="1.88679" stroke-dasharray="5.66 5.66"/>
<path fill-rule="evenodd" clip-rule="evenodd" d="M178.323 336.14L171.846 175.75H152.976L147.29 336.67L141.27 336.772C141.002 336.772 140.672 336.954 140.672 337.185V340.793C140.672 341.028 140.952 341.205 141.229 341.205L183.004 341.51C183.935 341.51 184.97 340.772 184.97 339.861V337.799C184.97 337.352 184.549 336.92 184.222 336.585L184.199 336.562C183.818 336.234 183.33 336.056 182.827 336.063L178.323 336.14Z" fill="#303034"/>
<path d="M69.3019 112.551L227.611 114.514C228.093 114.551 228.559 114.708 228.967 114.969C229.375 115.23 229.712 115.588 229.948 116.011L273.125 201.176C273.537 202.001 273.174 202.681 272.3 202.685L114.214 203.634C113.704 203.609 113.21 203.454 112.777 203.184C112.344 202.914 111.987 202.538 111.741 202.091L68.358 114.056C67.9417 113.215 68.3662 112.539 69.3019 112.551Z" fill="#E0E0E0"/>
<path d="M110.648 202.636L67.2698 114.605C67.0757 114.255 66.9763 113.861 66.9813 113.461C66.9864 113.061 67.0958 112.669 67.2986 112.325C67.5264 112 67.8324 111.738 68.1883 111.563C68.5442 111.387 68.9386 111.305 69.3348 111.323L227.652 113.285C228.359 113.326 229.045 113.547 229.643 113.927C230.242 114.306 230.734 114.832 231.073 115.454L274.225 200.62C274.424 200.969 274.528 201.364 274.528 201.766C274.528 202.168 274.424 202.563 274.225 202.913C274.02 203.232 273.734 203.493 273.398 203.67C273.061 203.846 272.684 203.932 272.304 203.919L114.214 204.867C113.476 204.839 112.759 204.619 112.134 204.227C111.508 203.836 110.996 203.287 110.648 202.636ZM228.847 116.568C228.714 116.348 228.534 116.16 228.321 116.018C228.107 115.875 227.865 115.781 227.611 115.743L69.6028 113.784L112.882 201.544C113.025 201.781 113.22 201.982 113.454 202.13C113.687 202.279 113.951 202.372 114.226 202.401L271.909 201.449L228.847 116.568Z" fill="#404040"/>
<path fill-rule="evenodd" clip-rule="evenodd" d="M122.684 119.224L77.7352 118.721C76.7995 118.713 76.3791 119.389 76.8036 120.209L86.7703 140.414C87.0164 140.856 87.3695 141.23 87.7973 141.5C88.2251 141.77 88.7138 141.928 89.2187 141.96L134.147 142.249C135.05 142.257 135.462 141.569 135.05 140.744L125.1 120.754C124.855 120.318 124.506 119.951 124.085 119.684C123.663 119.417 123.182 119.259 122.684 119.224ZM130.652 119.303L174.649 119.794C175.139 119.83 175.613 119.988 176.028 120.252C176.443 120.516 176.786 120.878 177.027 121.307L186.961 141.099C187.373 141.924 186.99 142.596 186.091 142.588L142.106 142.304C141.609 142.271 141.128 142.115 140.706 141.848C140.285 141.582 139.938 141.214 139.695 140.778L129.745 120.796C129.329 119.971 129.737 119.303 130.652 119.303ZM182.447 119.891L225.525 120.373C226.009 120.41 226.475 120.566 226.884 120.827C227.293 121.088 227.63 121.447 227.866 121.87L237.783 141.456C238.196 142.281 237.825 142.937 236.959 142.933L193.898 142.652C193.407 142.617 192.933 142.461 192.517 142.196C192.102 141.932 191.759 141.569 191.52 141.139L181.573 121.363C181.161 120.538 181.549 119.883 182.447 119.891ZM195.996 146.855L239.053 147.098C239.538 147.133 240.006 147.288 240.415 147.55C240.825 147.811 241.163 148.17 241.398 148.595L251.361 168.268C251.773 169.093 251.406 169.761 250.537 169.761L207.496 169.719C207.005 169.687 206.53 169.532 206.115 169.268C205.699 169.004 205.356 168.641 205.118 168.21L195.13 148.348C194.714 147.519 195.102 146.847 195.996 146.855ZM188.202 146.809L144.221 146.562C143.306 146.558 142.906 147.234 143.323 148.071L153.318 168.148C153.561 168.584 153.909 168.953 154.331 169.219C154.753 169.486 155.235 169.642 155.733 169.674L199.697 169.711C200.596 169.711 200.979 169.031 200.567 168.206L190.584 148.323C190.344 147.892 190.001 147.528 189.585 147.264C189.169 146.999 188.693 146.843 188.202 146.809ZM91.3291 146.265L136.258 146.517C136.756 146.549 137.239 146.706 137.661 146.973C138.083 147.24 138.431 147.61 138.673 148.047L148.673 168.14C149.085 168.986 148.673 169.666 147.77 169.666L102.842 169.625C102.336 169.596 101.846 169.439 101.417 169.169C100.988 168.9 100.634 168.526 100.389 168.082L90.3935 147.791C89.9772 146.929 90.3935 146.257 91.3291 146.265ZM252.647 173.941H209.61C208.716 173.941 208.329 174.617 208.757 175.45L218.782 195.407C219.02 195.838 219.363 196.202 219.78 196.466C220.196 196.729 220.672 196.882 221.164 196.912L264.18 196.71C265.054 196.706 265.417 196.026 265.004 195.201L254.992 175.438C254.757 175.012 254.42 174.652 254.01 174.391C253.6 174.129 253.132 173.974 252.647 173.941ZM157.86 173.937H201.82C202.312 173.969 202.788 174.123 203.204 174.387C203.62 174.651 203.964 175.015 204.203 175.446L214.231 195.424C214.643 196.249 214.268 196.942 213.37 196.946L169.426 197.156C168.927 197.126 168.444 196.971 168.021 196.704C167.598 196.437 167.249 196.068 167.007 195.63L156.962 175.463C156.545 174.622 156.945 173.937 157.86 173.937ZM149.917 173.937H104.989C104.053 173.937 103.637 174.626 104.058 175.479L114.119 195.87C114.364 196.313 114.717 196.687 115.146 196.956C115.575 197.225 116.066 197.38 116.572 197.408L163.149 197.189L152.337 175.467C152.095 175.028 151.747 174.658 151.324 174.391C150.901 174.123 150.417 173.967 149.917 173.937Z" fill="#7357FF"/>
<path fill-rule="evenodd" clip-rule="evenodd" d="M263.061 337.199L257.964 290.273H242.788L238.287 337.621L233.372 337.704C233.161 337.704 232.891 337.853 232.891 338.034V340.923C232.891 341.113 233.119 341.266 233.339 341.266L266.946 341.509C267.699 341.509 268.528 340.915 268.528 340.177V338.529C268.528 338.162 268.176 337.807 267.911 337.548C267.605 337.28 267.212 337.133 266.805 337.136L263.061 337.199Z" fill="#303034"/>
<path d="M175.474 239.684L302.835 241.254C303.223 241.286 303.598 241.412 303.926 241.621C304.255 241.83 304.527 242.116 304.719 242.453L339.444 310.631C339.783 311.294 339.485 311.838 338.781 311.842L211.603 312.601C211.195 312.579 210.799 312.454 210.453 312.238C210.106 312.021 209.821 311.721 209.624 311.364L174.712 240.883C174.377 240.215 174.721 239.675 175.474 239.684Z" fill="#E0E0E0"/>
<path d="M208.738 311.793L173.826 241.312C173.668 241.033 173.585 240.719 173.585 240.399C173.585 240.079 173.668 239.764 173.826 239.486C174.011 239.223 174.261 239.012 174.55 238.871C174.84 238.731 175.161 238.666 175.483 238.682L302.843 240.253C303.412 240.286 303.964 240.464 304.445 240.768C304.927 241.072 305.323 241.493 305.596 241.992L340.322 310.161C340.482 310.44 340.566 310.756 340.566 311.078C340.566 311.4 340.482 311.716 340.322 311.995C340.158 312.255 339.929 312.468 339.658 312.613C339.386 312.757 339.081 312.828 338.773 312.819L211.607 313.578C211.014 313.556 210.437 313.38 209.933 313.066C209.43 312.753 209.018 312.314 208.738 311.793ZM303.832 242.899C303.723 242.722 303.576 242.571 303.401 242.457C303.226 242.343 303.029 242.269 302.822 242.239L175.698 240.673L210.531 310.923C210.645 311.113 210.802 311.274 210.99 311.393C211.177 311.512 211.39 311.585 211.612 311.608L338.458 310.845L303.832 242.899Z" fill="#404040"/>
<path fill-rule="evenodd" clip-rule="evenodd" d="M218.419 245.033L182.257 244.621C181.508 244.613 181.168 245.157 181.503 245.829L189.512 261.994C189.709 262.349 189.994 262.648 190.338 262.864C190.683 263.08 191.076 263.206 191.483 263.231L227.637 263.486C228.365 263.49 228.701 262.95 228.365 262.279L220.361 246.27C220.166 245.919 219.887 245.622 219.548 245.406C219.209 245.191 218.821 245.062 218.419 245.033ZM224.825 245.093L260.221 245.505C260.616 245.533 260.998 245.658 261.332 245.87C261.666 246.081 261.942 246.372 262.134 246.717L270.126 262.556C270.461 263.22 270.151 263.756 269.426 263.752L234.043 263.521C233.641 263.493 233.253 263.365 232.915 263.149C232.576 262.933 232.298 262.636 232.105 262.284L224.1 246.288C223.782 245.62 224.092 245.093 224.825 245.093ZM266.494 245.561L301.149 245.944C301.538 245.973 301.914 246.098 302.243 246.308C302.572 246.517 302.843 246.804 303.033 247.144L311.013 262.806C311.348 263.466 311.046 263.993 310.338 263.989L275.695 263.766C275.301 263.738 274.92 263.612 274.587 263.4C274.254 263.189 273.979 262.898 273.786 262.555L265.795 246.744C265.459 246.08 265.774 245.553 266.494 245.561ZM277.397 267.141L312.036 267.335C312.425 267.363 312.8 267.487 313.129 267.695C313.458 267.904 313.73 268.191 313.92 268.53L321.92 284.279C322.255 284.939 321.957 285.474 321.249 285.474L286.623 285.441C286.228 285.416 285.846 285.292 285.512 285.081C285.177 284.87 284.902 284.579 284.71 284.234L276.681 268.336C276.37 267.669 276.677 267.137 277.397 267.141ZM271.124 267.103L235.744 266.905C235.007 266.901 234.684 267.441 235.02 268.113L243.065 284.188C243.258 284.54 243.537 284.839 243.876 285.055C244.216 285.271 244.605 285.398 245.008 285.424L280.375 285.457C281.095 285.457 281.41 284.917 281.07 284.249L273.041 268.315C272.848 267.97 272.572 267.678 272.237 267.467C271.902 267.255 271.52 267.13 271.124 267.103ZM193.193 266.667L229.339 266.869C229.741 266.896 230.131 267.024 230.471 267.24C230.811 267.456 231.091 267.754 231.285 268.106L239.33 284.181C239.666 284.852 239.33 285.417 238.602 285.417L202.469 285.384C202.062 285.361 201.667 285.235 201.323 285.019C200.978 284.803 200.694 284.503 200.498 284.148L192.439 267.887C192.104 267.212 192.444 266.663 193.193 266.667ZM322.967 288.821H288.346C287.629 288.821 287.319 289.361 287.654 290.02L295.721 306.004C295.913 306.349 296.19 306.64 296.525 306.851C296.86 307.062 297.242 307.186 297.638 307.212L332.243 307.047C332.951 307.043 333.249 306.503 332.91 305.839L324.86 290.02C324.669 289.68 324.396 289.392 324.066 289.182C323.736 288.973 323.358 288.849 322.967 288.821ZM246.718 288.821H282.081C282.476 288.846 282.859 288.97 283.194 289.181C283.529 289.392 283.806 289.683 283.998 290.028L292.064 306.021C292.404 306.688 292.093 307.236 291.373 307.257L256.022 307.422C255.619 307.398 255.228 307.272 254.888 307.055C254.547 306.839 254.268 306.539 254.076 306.185L245.993 290.041C245.658 289.365 245.981 288.821 246.718 288.821ZM240.316 288.819H204.183C203.429 288.819 203.077 289.371 203.433 290.064L211.525 306.386C211.721 306.742 212.006 307.042 212.352 307.258C212.697 307.474 213.092 307.6 213.5 307.622L250.958 307.445L242.262 290.055C242.069 289.703 241.789 289.405 241.448 289.189C241.108 288.972 240.719 288.845 240.316 288.819Z" fill="#7357FF"/>
<path fill-rule="evenodd" clip-rule="evenodd" d="M104.131 336.455L98.1981 281.324H80.5337L75.294 336.948L69.5727 337.046C69.3257 337.046 69.0169 337.22 69.0169 337.431L69.0128 340.81C69.0128 341.029 69.2763 341.223 69.5316 341.223L108.649 341.509C109.526 341.509 110.493 340.814 110.493 339.945V338.002C110.493 337.588 110.081 337.154 109.769 336.848C109.414 336.539 108.958 336.372 108.488 336.381L104.131 336.455Z" fill="#303034"/>
<path d="M2.18865 221.914L150.421 223.759C150.874 223.795 151.31 223.942 151.693 224.188C152.075 224.434 152.39 224.771 152.612 225.169L193.03 305.224C193.442 306.002 193.075 306.639 192.256 306.643L44.2373 307.536C43.7629 307.511 43.3027 307.365 42.9001 307.111C42.4974 306.858 42.1655 306.506 41.9356 306.089L1.30337 223.333C0.912205 222.539 1.30749 221.906 2.18865 221.914Z" fill="#E0E0E0"/>
<path d="M40.9021 306.597L0.269871 223.841C0.0887727 223.513 -0.00418723 223.143 0.000144765 222.768C0.00447676 222.394 0.10595 222.026 0.294575 221.703C0.508265 221.397 0.794712 221.151 1.12774 220.985C1.46077 220.82 1.82977 220.741 2.20101 220.756L150.434 222.604C151.096 222.643 151.737 222.85 152.297 223.207C152.856 223.564 153.316 224.058 153.633 224.643L194.055 304.723C194.242 305.052 194.34 305.423 194.34 305.801C194.34 306.179 194.242 306.55 194.055 306.878C193.862 307.178 193.595 307.422 193.279 307.588C192.964 307.753 192.611 307.833 192.256 307.821L44.2456 308.694C43.5542 308.669 42.8812 308.463 42.2944 308.095C41.7075 307.727 41.2274 307.21 40.9021 306.597ZM151.583 225.689C151.457 225.48 151.286 225.301 151.083 225.166C150.88 225.031 150.65 224.943 150.409 224.908L2.46454 223.067L42.9691 305.567C43.099 305.788 43.2782 305.975 43.4926 306.114C43.707 306.254 43.9507 306.341 44.2044 306.369L191.844 305.476L151.583 225.689Z" fill="#404040"/>
<path fill-rule="evenodd" clip-rule="evenodd" d="M52.1718 228.186L10.0861 227.715C9.20906 227.703 8.81377 228.34 9.20494 229.129L18.5354 248.116C18.7649 248.532 19.0955 248.883 19.4965 249.137C19.8974 249.391 20.3558 249.539 20.8289 249.567L62.9022 249.844C63.7505 249.848 64.1375 249.216 63.7505 248.426L54.4324 229.626C54.2043 229.216 53.8782 228.87 53.4835 228.619C53.0888 228.367 52.638 228.219 52.1718 228.186ZM59.6288 228.27L100.833 228.733C101.292 228.766 101.736 228.913 102.124 229.161C102.513 229.41 102.833 229.751 103.057 230.155L112.363 248.765C112.75 249.547 112.387 250.175 111.539 250.167L70.3633 249.898C69.8976 249.868 69.4468 249.721 69.0525 249.47C68.6582 249.22 68.333 248.873 68.1069 248.463L58.7888 229.68C58.3935 228.89 58.7723 228.261 59.6288 228.27ZM108.126 228.815L148.478 229.266C148.93 229.305 149.366 229.456 149.746 229.706C150.127 229.955 150.439 230.296 150.656 230.697L159.941 249.104C160.353 249.877 159.982 250.498 159.159 250.493L118.839 250.229C118.38 250.197 117.936 250.051 117.547 249.802C117.159 249.553 116.839 249.211 116.616 248.806L107.31 230.2C106.919 229.427 107.286 228.803 108.126 228.815ZM120.812 254.158L161.127 254.385C161.58 254.418 162.018 254.564 162.401 254.809C162.785 255.055 163.101 255.392 163.322 255.791L172.652 274.285C173.064 275.063 172.693 275.691 171.87 275.691L131.571 275.654C131.112 275.622 130.667 275.476 130.278 275.228C129.89 274.98 129.568 274.639 129.343 274.236L120.001 255.56C119.61 254.782 119.972 254.153 120.812 254.158ZM113.511 254.115L72.3357 253.883C71.4792 253.879 71.1004 254.512 71.4916 255.302L80.8261 274.172C81.0524 274.583 81.3781 274.93 81.7732 275.18C82.1684 275.431 82.6201 275.578 83.0866 275.607L124.262 275.644C125.115 275.644 125.477 275.011 125.086 274.226L115.739 255.537C115.515 255.133 115.194 254.79 114.805 254.542C114.416 254.294 113.971 254.147 113.511 254.115ZM22.8135 253.603L64.8828 253.843C65.349 253.873 65.8003 254.02 66.1953 254.271C66.5902 254.522 66.9162 254.868 67.1433 255.278L76.5067 274.169C76.8979 274.959 76.5067 275.6 75.6626 275.6L33.6057 275.563C33.1323 275.536 32.6735 275.388 32.2724 275.134C31.8712 274.88 31.5408 274.528 31.3122 274.111L21.9365 255.038C21.5453 254.24 21.9365 253.599 22.8135 253.603ZM173.854 279.618H133.56C132.72 279.618 132.357 280.255 132.753 281.033L142.141 299.795C142.363 300.201 142.684 300.543 143.074 300.79C143.463 301.037 143.909 301.182 144.368 301.21L184.647 301.02C185.47 301.015 185.816 300.383 185.425 299.601L176.053 281.02C175.832 280.621 175.515 280.284 175.131 280.039C174.747 279.794 174.308 279.649 173.854 279.618ZM85.1042 279.618H126.28C126.741 279.648 127.187 279.793 127.577 280.042C127.968 280.291 128.289 280.634 128.512 281.041L137.892 299.816C138.303 300.606 137.924 301.247 137.068 301.251L95.9211 301.446C95.4544 301.419 95.0022 301.274 94.6068 301.023C94.2114 300.773 93.8858 300.426 93.6605 300.015L84.2519 281.053C83.873 280.259 84.2477 279.618 85.1042 279.618ZM77.6556 279.615H35.5986C34.7257 279.615 34.3345 280.264 34.7298 281.066L44.1467 300.23C44.3766 300.648 44.7085 301 45.1112 301.253C45.5138 301.506 45.974 301.652 46.4484 301.678L90.0412 301.471L79.9202 281.05C79.6933 280.638 79.3668 280.291 78.971 280.041C78.5752 279.79 78.1227 279.643 77.6556 279.615Z" fill="#7357FF"/>
<path d="M497.844 375.456C497.844 437.563 447.978 488.031 386.084 488.981C385.493 488.981 384.903 488.981 384.313 488.981C321.598 489.011 270.765 438.177 270.765 375.456C270.765 317.233 314.593 269.221 371.057 262.687C375.453 262.175 379.875 261.919 384.301 261.92C447.01 261.932 497.844 312.76 497.844 375.456Z" fill="#EC6D25"/>
<path d="M509.768 375.456C509.768 437.563 459.903 488.031 398.008 488.981C397.418 488.981 396.828 488.981 396.238 488.981C333.523 489.011 282.689 438.177 282.689 375.456C282.689 317.233 326.518 269.221 382.982 262.687C387.378 262.175 391.8 261.919 396.226 261.92C458.935 261.932 509.768 312.76 509.768 375.456Z" fill="#FB8847"/>
<path d="M464.623 443.869C502.397 406.095 502.397 344.851 464.623 307.076C426.848 269.302 365.604 269.302 327.83 307.076C290.056 344.851 290.056 406.095 327.83 443.869C365.604 481.643 426.848 481.643 464.623 443.869Z" fill="#FBB347"/>
<path d="M425.337 313.207L362.264 383.761H387.998L367.116 436.792L430.189 366.451H406.561L425.337 313.207Z" fill="white"/>
<path d="M526.061 332.266C518.165 325.464 508.371 321.205 497.979 320.053L493.507 322.763C495.833 325.938 498.539 328.821 501.567 331.347C506.348 334.134 513.74 337.84 519.869 338.655C525.787 339.443 526.672 335.869 526.061 332.266Z" fill="#020202"/>
<path d="M530.393 336.529C529.045 335.016 527.598 333.591 526.061 332.265C526.672 335.868 525.788 339.442 519.834 338.654C513.705 337.839 506.313 334.105 501.532 331.346C507.527 336.425 516.654 341.797 528.21 341.497C528.781 341.478 529.334 341.298 529.807 340.98C530.279 340.661 530.651 340.216 530.88 339.697C531.108 339.177 531.184 338.604 531.097 338.043C531.011 337.483 530.767 336.958 530.393 336.529Z" fill="#020202"/>
<path d="M466.668 251.006C466.668 251.006 460.167 251.347 459.373 264.613C459.373 264.613 474.439 278.025 494.799 281.216C496.329 281.453 492.693 270.863 492.11 269.427C489.491 262.599 481.235 258.203 466.668 251.006Z" fill="#020202"/>
<path d="M492.11 269.426C488.6 270.562 487.013 275.536 478.027 272.213C471.461 269.824 465.241 266.587 459.528 262.584C459.458 263.232 459.394 263.901 459.352 264.611C459.352 264.611 475.24 279.612 495.599 282.803C495.949 282.855 496.307 282.815 496.637 282.686C496.966 282.558 497.256 282.346 497.477 282.072C497.698 281.797 497.842 281.47 497.896 281.123C497.95 280.775 497.911 280.42 497.783 280.093C496.33 276.324 494.425 272.743 492.11 269.426Z" fill="#020202"/>
<path d="M393.479 235.378H407.19C407.19 235.378 449.313 189.24 476.89 184.586C476.89 184.586 496.112 208.93 475.865 254.419C474.243 258.077 469.687 259.7 466.289 257.548C465.3 256.939 464.532 256.034 464.098 254.963L465.727 216.12C465.727 216.12 429.824 247.285 423.604 253.297C417.384 259.31 385.616 255.68 393.479 235.378Z" fill="#020202"/>
<path d="M501.391 321.973C494.736 276.052 458.061 245.939 458.061 245.939L393.837 245.242L385.202 248.726L382.33 246.434L366.253 256.327C366.253 256.327 387.02 278.692 409.359 268.039C418.205 265.482 444.623 260.473 459.205 286.154C473.66 311.564 495.838 325.93 495.838 325.93C502.493 325.345 501.391 321.973 501.391 321.973Z" fill="#020202"/>
<path d="M395.494 193.908C395.494 193.908 402.409 228.292 436.283 241.899L448.337 240.505L451.145 245.006L422.881 245.905C422.881 245.905 398.716 236.402 385.918 210.525C385.532 209.654 378.483 195.211 395.494 193.908Z" fill="#FFC7C5"/>
<path d="M399.2 244.687C399.2 244.687 391.337 223.478 389.653 202.883C389.653 202.883 395.402 197.971 398.997 195.86C399.557 195.53 399.973 195.003 400.161 194.384C400.35 193.765 400.297 193.098 400.015 192.515C397.368 187.081 381.382 165.74 380.189 165.448C373.681 163.831 346.989 151.241 328.195 176.755C320.128 187.708 329.213 222.426 365.811 257.339L370.262 260.739L399.2 244.687Z" fill="#12C9C9"/>
<path d="M368.907 207.51C368.907 207.51 390.748 233.177 418.675 236.926C418.675 236.926 425.893 230.397 431.263 232.745C436.634 235.093 443.984 245.37 443.984 245.37H408.131C408.131 245.37 374.221 244.186 357.281 223.771C358.643 216.637 362.729 212.387 368.907 207.51Z" fill="#FFC7C5"/>
<path d="M356.165 147.438L351.412 163.253C351.307 163.608 351.319 163.987 351.445 164.335C351.571 164.683 351.805 164.982 352.114 165.19C354.417 166.758 360.433 169.865 368.682 166.848C369.143 166.673 369.544 166.372 369.84 165.98C370.135 165.588 370.313 165.121 370.353 164.633L371.483 150.851L356.165 147.438Z" fill="#FFC7C5"/>
<path fill-rule="evenodd" clip-rule="evenodd" d="M445.349 248.943C445.167 248.989 444.977 249.011 444.785 249.007H444.679L399.046 246.714C398.773 246.708 398.504 246.647 398.255 246.536C398.006 246.425 397.782 246.265 397.597 246.066C397.411 245.867 397.267 245.634 397.174 245.379C397.081 245.124 397.04 244.853 397.054 244.583C397.068 244.312 397.137 244.047 397.256 243.803C397.375 243.559 397.542 243.342 397.748 243.163C397.953 242.984 398.192 242.848 398.451 242.763C398.711 242.678 398.984 242.645 399.257 242.666L442.935 244.854L458.278 194.068C458.601 193.003 459.246 192.061 460.124 191.37C461.003 190.679 462.073 190.271 463.192 190.201L484.956 188.724C485.465 188.689 485.976 188.78 486.441 188.988C486.906 189.197 487.312 189.517 487.621 189.92C487.931 190.322 488.135 190.795 488.215 191.295C488.295 191.796 488.249 192.308 488.08 192.786L470.08 243.647C469.795 244.45 469.286 245.155 468.612 245.68C467.938 246.206 467.127 246.53 466.275 246.616L445.349 248.943Z" fill="#7357FF"/>
<path d="M389.653 203.279C389.598 203.28 389.544 203.27 389.493 203.249C389.442 203.229 389.396 203.199 389.358 203.16C389.319 203.122 389.288 203.076 389.268 203.026C389.247 202.976 389.237 202.922 389.238 202.867C389.238 193.42 385.595 180.872 385.56 180.746C385.529 180.643 385.541 180.531 385.593 180.437C385.645 180.342 385.733 180.272 385.837 180.241C385.941 180.211 386.053 180.223 386.149 180.274C386.244 180.326 386.315 180.413 386.346 180.516C386.346 180.649 390.088 193.301 390.06 202.874C390.06 202.982 390.017 203.084 389.941 203.16C389.864 203.236 389.761 203.279 389.653 203.279Z" fill="#0EA5A5"/>
<path d="M368.907 207.927C368.845 207.926 368.784 207.912 368.729 207.886C368.673 207.859 368.624 207.821 368.584 207.774C368.486 207.648 358.51 195.058 355.076 186.426C355.037 186.325 355.04 186.213 355.083 186.114C355.126 186.015 355.207 185.937 355.308 185.896C355.409 185.858 355.521 185.86 355.619 185.903C355.718 185.946 355.796 186.027 355.835 186.126C359.226 194.647 369.132 207.147 369.23 207.265C369.296 207.351 369.325 207.458 369.312 207.565C369.299 207.672 369.244 207.769 369.16 207.836C369.09 207.897 369 207.929 368.907 207.927Z" fill="#0EA5A5"/>
<path d="M354.922 227.18L354.62 227.054C340.172 220.909 331.249 203.797 331.158 203.623C331.111 203.527 331.104 203.416 331.138 203.315C331.172 203.213 331.244 203.129 331.34 203.08C331.436 203.031 331.548 203.022 331.65 203.054C331.753 203.087 331.838 203.159 331.888 203.254C331.979 203.428 340.642 220.045 354.634 226.176L356.102 224.086C356.164 223.994 356.261 223.93 356.371 223.908C356.481 223.887 356.595 223.909 356.688 223.971C356.781 224.033 356.845 224.129 356.867 224.238C356.889 224.347 356.866 224.46 356.804 224.553L354.922 227.18Z" fill="#0EA5A5"/>
<path d="M386.844 124.598C386.844 124.598 385.202 142.107 381.502 149.75C377.802 157.393 376.742 163.085 367.271 159.852C357.8 156.619 352.9 148.37 353.055 138.832C353.055 138.832 353.195 124.075 357.169 120.173C361.142 116.272 386.844 124.598 386.844 124.598Z" fill="#FFC7C5"/>
<path d="M358.959 135.104L359.57 135.153C359.754 135.171 359.939 135.15 360.115 135.093C360.29 135.036 360.452 134.944 360.59 134.823C360.729 134.701 360.84 134.553 360.918 134.387C360.996 134.221 361.039 134.041 361.044 133.857C361.121 130.854 361.746 124.201 365.481 124.633C370.325 125.183 387.75 130.576 394.188 126.911C400.38 123.386 401.3 114.969 398.056 110.663C397.951 110.527 397.8 110.434 397.63 110.402C397.46 110.37 397.285 110.401 397.137 110.489L396.399 110.97C396.286 111.027 396.16 111.053 396.033 111.045C395.907 111.037 395.785 110.995 395.681 110.923C395.576 110.852 395.493 110.754 395.441 110.639C395.388 110.525 395.367 110.398 395.381 110.273C395.398 110.151 395.381 110.026 395.333 109.912C395.286 109.798 395.208 109.699 395.109 109.624C395.009 109.55 394.892 109.503 394.768 109.489C394.645 109.474 394.52 109.492 394.406 109.541C392.454 110.628 388.164 111.764 379.901 109.04C368.163 105.166 358.741 105.556 354.508 112.802C354.444 112.9 354.357 112.98 354.254 113.036C354.151 113.092 354.035 113.121 353.918 113.121C353.801 113.121 353.685 113.092 353.582 113.036C353.479 112.98 353.392 112.9 353.328 112.802C352.809 111.896 351.672 110.984 349.207 111.471C344.925 112.307 342.608 119.303 346.132 128.019C346.167 128.115 346.179 128.217 346.169 128.318C346.159 128.42 346.127 128.518 346.075 128.605C346.023 128.693 345.952 128.768 345.867 128.826C345.782 128.883 345.686 128.922 345.585 128.938C344.005 129.057 341.281 129.893 344.447 134.735C347.726 139.738 351.307 141.438 352.767 141.946C352.94 141.998 353.126 141.981 353.287 141.899C353.448 141.817 353.571 141.677 353.63 141.507L355.772 134.303C355.804 134.211 355.856 134.127 355.924 134.057C355.991 133.986 356.073 133.93 356.164 133.893C356.254 133.855 356.352 133.837 356.45 133.839C356.548 133.842 356.645 133.864 356.733 133.906L358.959 135.104Z" fill="#303034"/>
<path d="M358.474 136.602C358.474 136.602 361.121 126.291 355.666 126.59C350.211 126.89 352.156 137.857 355.259 139.989L358.474 136.602Z" fill="#FFC7C5"/>
<g clip-path="url(#clip1_233_13316)">
<path d="M472.301 177.774C472.782 177.347 474.614 174.12 477.541 177.774C477.859 177.948 478.685 177.473 478.573 177.121C475.143 171.862 470.878 176.797 471.298 177.338C471.718 177.879 471.738 178.267 472.301 177.774Z" fill="#404040"/>
<path d="M480.64 175.582C481.281 175.504 481.881 175.047 481.701 174.458C481.521 173.868 475.412 166.38 468.631 174.833C468.589 174.884 468.557 174.943 468.537 175.007C468.517 175.072 468.51 175.139 468.516 175.206C468.522 175.273 468.54 175.338 468.57 175.398C468.6 175.457 468.641 175.51 468.691 175.552C468.999 175.823 469.262 176.006 469.605 175.961C475.823 168.546 480.003 175.663 480.64 175.582Z" fill="#404040"/>
<path d="M483.816 173.345C484.271 173.438 485.2 173.08 484.96 172.296C474.222 160.006 464.663 172.897 465.009 173.405C465.164 173.614 465.38 173.762 465.624 173.828C465.868 173.894 466.126 173.873 466.358 173.769C474.908 162.234 483.362 173.249 483.816 173.345Z" fill="#404040"/>
</g>
<defs>
<clipPath id="clip0_233_13316">
<rect width="40.566" height="31.1321" fill="white" transform="translate(289.623 11.8047) rotate(-16.9186)"/>
</clipPath>
<clipPath id="clip1_233_13316">
<rect width="20" height="11" fill="white" transform="translate(465 167)"/>
</clipPath>
</defs>
</svg>
