<svg width="24" height="24" viewBox="0 0 24 24" fill="currentColor" xmlns="http://www.w3.org/2000/svg">
<path fill-rule="evenodd" clip-rule="evenodd" d="M18.2629 3C18.9853 3 19.6776 3.28939 20.1851 3.80351C20.6957 4.31462 20.9802 5.00896 20.9751 5.73138C20.9701 6.45379 20.6758 7.14407 20.1581 7.64796L18.4295 9.37661L14.612 5.55917L16.3407 3.80351C16.8482 3.28939 17.5405 3 18.2629 3ZM5.77969 14.3915L13.3335 6.83765L17.124 10.6821L9.57012 18.236C9.5005 18.3037 9.42169 18.3613 9.33603 18.407L4.28512 20.91C4.16166 20.9698 4.02616 21.0006 3.88897 21C3.57486 20.996 3.28553 20.8286 3.12553 20.5583C2.96553 20.2879 2.95801 19.9538 3.10568 19.6765L5.60862 14.6256C5.65438 14.5399 5.71197 14.4611 5.77969 14.3915Z" />
</svg>
