<svg width="24" height="24" viewBox="0 0 24 24" fill="currentColor" xmlns="http://www.w3.org/2000/svg">
<path fill-rule="evenodd" clip-rule="evenodd" d="M18.8857 20.2517C20.804 18.4297 22 15.8545 22 13C22 7.47715 17.5228 3 12 3C6.47715 3 2 7.47715 2 13C2 15.8553 3.19668 18.4311 5.11585 20.2532C5.03657 20.1756 5.01988 20.054 5.07707 19.9586C6.36681 17.8061 8.9828 16.3334 12.0001 16.3334C15.0173 16.3334 17.6333 17.806 18.9231 19.9585C18.9799 20.0534 18.9638 20.1741 18.8857 20.2517ZM16.4445 10.7778C16.4445 13.2324 14.4546 15.2223 12 15.2223C9.54542 15.2223 7.55558 13.2324 7.55558 10.7778C7.55558 8.32322 9.54542 6.33337 12 6.33337C14.4546 6.33337 16.4445 8.32322 16.4445 10.7778Z" />
</svg>
