<svg width="24" height="24" viewBox="0 0 24 24" fill="currentColor" xmlns="http://www.w3.org/2000/svg">
<g clip-path="url(#clip0_215_8028)">
<path d="M19.0711 4.92893C15.1678 1.0257 8.83216 1.0257 4.92893 4.92893C1.0257 8.83216 1.0257 15.1678 4.92893 19.0711C8.83216 22.9743 15.1678 22.9743 19.0711 19.0711C22.9743 15.1678 22.9743 8.83216 19.0711 4.92893ZM15.5355 15.5355C15.145 15.9261 14.5118 15.9261 14.1213 15.5355L12 13.4142L9.87868 15.5355C9.48816 15.9261 8.85499 15.9261 8.46447 15.5355C8.07394 15.145 8.07394 14.5118 8.46447 14.1213L10.5858 12L8.46447 9.87868C8.07394 9.48816 8.07394 8.85499 8.46447 8.46447C8.85499 8.07394 9.48816 8.07394 9.87868 8.46447L12 10.5858L14.1213 8.46447C14.5118 8.07394 15.145 8.07394 15.5355 8.46447C15.9261 8.85499 15.9261 9.48816 15.5355 9.87868L13.4142 12L15.5355 14.1213C15.9261 14.5118 15.9261 15.145 15.5355 15.5355Z" />
</g>
<defs>
<clipPath id="clip0_215_8028">
<rect width="24" height="24" fill="white"/>
</clipPath>
</defs>
</svg>
